0, 0, Header, 1, 8, 256
1, 0, Start_track
1, 0, Time_signature, 2, 2, 24, 8
1, 0, Key_signature, 0, "minor"
1, 384, Tempo, 652172
1, 87040, Tempo, 652172
1, 87070, Tempo, 661905
1, 87100, Tempo, 671935
1, 87130, Tempo, 682272
1, 87160, Tempo, 692933
1, 87190, Tempo, 703932
1, 87220, Tempo, 715286
1, 87250, Tempo, 727012
1, 87280, Tempo, 739129
1, 87310, Tempo, 751656
1, 87340, Tempo, 764615
1, 87370, Tempo, 778029
1, 87400, Tempo, 791923
1, 87430, Tempo, 806322
1, 87460, Tempo, 821253
1, 87490, Tempo, 836749
1, 87520, Tempo, 852841
1, 87521, End_track
2, 0, Start_track
2, 384, Program_c, 1, 40
2, 384, Control_c, 1, 121, 0
2, 384, Control_c, 1, 64, 0
2, 384, Control_c, 1, 91, 48
2, 384, Control_c, 1, 10, 32
2, 384, Control_c, 1, 7, 126
2, 384, Title_t, "Violin Solo"
2, 384, Note_on_c, 1, 76, 68
2, 512, Note_off_c, 1, 76, 0
2, 512, Note_on_c, 1, 81, 86
2, 768, Note_off_c, 1, 81, 0
2, 896, Note_on_c, 1, 76, 69
2, 1024, Note_off_c, 1, 76, 0
2, 1024, Note_on_c, 1, 77, 84
2, 1280, Note_off_c, 1, 77, 0
2, 1408, Note_on_c, 1, 74, 70
2, 1536, Note_off_c, 1, 74, 0
2, 1536, Note_on_c, 1, 76, 80
2, 1600, Note_on_c, 1, 74, 75
2, 1601, Note_off_c, 1, 76, 0
2, 1664, Note_on_c, 1, 72, 71
2, 1665, Note_off_c, 1, 74, 0
2, 1728, Note_on_c, 1, 76, 76
2, 1729, Note_off_c, 1, 72, 0
2, 1788, Note_off_c, 1, 76, 0
2, 1792, Note_on_c, 1, 74, 72
2, 1856, Note_on_c, 1, 72, 70
2, 1857, Note_off_c, 1, 74, 0
2, 1920, Note_on_c, 1, 71, 72
2, 1921, Note_off_c, 1, 72, 0
2, 1984, Note_on_c, 1, 74, 75
2, 1985, Note_off_c, 1, 71, 0
2, 2044, Note_off_c, 1, 74, 0
2, 2048, Note_on_c, 1, 72, 71
2, 2176, Note_off_c, 1, 72, 0
2, 2176, Note_on_c, 1, 69, 71
2, 2304, Note_off_c, 1, 69, 0
2, 2368, Note_on_c, 1, 69, 67
2, 2432, Note_on_c, 1, 68, 61
2, 2433, Note_off_c, 1, 69, 0
2, 2496, Note_on_c, 1, 69, 82
2, 2497, Note_off_c, 1, 68, 0
2, 2556, Note_off_c, 1, 69, 0
2, 2560, Note_on_c, 1, 71, 82
2, 2624, Note_off_c, 1, 71, 0
2, 2624, Note_on_c, 1, 69, 70
2, 2688, Note_on_c, 1, 68, 62
2, 2689, Note_off_c, 1, 69, 0
2, 2752, Note_on_c, 1, 69, 77
2, 2753, Note_off_c, 1, 68, 0
2, 2812, Note_off_c, 1, 69, 0
2, 2816, Note_on_c, 1, 72, 85
2, 2880, Note_off_c, 1, 72, 0
2, 2880, Note_on_c, 1, 69, 70
2, 2944, Note_on_c, 1, 68, 64
2, 2945, Note_off_c, 1, 69, 0
2, 3008, Note_on_c, 1, 69, 77
2, 3009, Note_off_c, 1, 68, 0
2, 3068, Note_off_c, 1, 69, 0
2, 3072, Note_on_c, 1, 74, 88
2, 3136, Note_off_c, 1, 74, 0
2, 3136, Note_on_c, 1, 69, 67
2, 3200, Note_on_c, 1, 68, 62
2, 3201, Note_off_c, 1, 69, 0
2, 3264, Note_on_c, 1, 69, 82
2, 3265, Note_off_c, 1, 68, 0
2, 3324, Note_off_c, 1, 69, 0
2, 3328, Note_on_c, 1, 76, 88
2, 3392, Note_off_c, 1, 76, 0
2, 3392, Note_on_c, 1, 69, 68
2, 3456, Note_on_c, 1, 68, 57
2, 3457, Note_off_c, 1, 69, 0
2, 3520, Note_on_c, 1, 69, 83
2, 3521, Note_off_c, 1, 68, 0
2, 3580, Note_off_c, 1, 69, 0
2, 3584, Note_on_c, 1, 77, 96
2, 3648, Note_on_c, 1, 79, 108
2, 3649, Note_off_c, 1, 77, 0
2, 3712, Note_on_c, 1, 77, 76
2, 3713, Note_off_c, 1, 79, 0
2, 3772, Note_off_c, 1, 77, 0
2, 3776, Note_on_c, 1, 76, 73
2, 3840, Note_off_c, 1, 76, 0
2, 3840, Note_on_c, 1, 74, 73
2, 3904, Note_off_c, 1, 74, 0
2, 3904, Note_on_c, 1, 72, 72
2, 3968, Note_off_c, 1, 72, 0
2, 3968, Note_on_c, 1, 71, 73
2, 4032, Note_off_c, 1, 71, 0
2, 4032, Note_on_c, 1, 69, 71
2, 4096, Note_off_c, 1, 69, 0
2, 4096, Note_on_c, 1, 68, 70
2, 4224, Note_off_c, 1, 68, 0
2, 4224, Note_on_c, 1, 64, 66
2, 4352, Note_off_c, 1, 64, 0
2, 4352, Note_on_c, 1, 83, 99
2, 4736, Note_off_c, 1, 83, 0
2, 4736, Note_on_c, 1, 81, 64
2, 4800, Note_off_c, 1, 81, 0
2, 4800, Note_on_c, 1, 80, 71
2, 4864, Note_off_c, 1, 80, 0
2, 4864, Note_on_c, 1, 81, 81
2, 4992, Note_off_c, 1, 81, 0
2, 4992, Note_on_c, 1, 84, 80
2, 5248, Note_off_c, 1, 84, 0
2, 5248, Note_on_c, 1, 78, 66
2, 5376, Note_off_c, 1, 78, 0
2, 5376, Note_on_c, 1, 81, 83
2, 5760, Note_off_c, 1, 81, 0
2, 5760, Note_on_c, 1, 79, 69
2, 5824, Note_off_c, 1, 79, 0
2, 5824, Note_on_c, 1, 78, 71
2, 5888, Note_off_c, 1, 78, 0
2, 5888, Note_on_c, 1, 79, 77
2, 6016, Note_off_c, 1, 79, 0
2, 6016, Note_on_c, 1, 83, 80
2, 6198, Note_off_c, 1, 83, 0
2, 6208, Note_on_c, 1, 81, 67
2, 6272, Note_off_c, 1, 81, 0
2, 6272, Note_on_c, 1, 79, 68
2, 6336, Note_off_c, 1, 79, 0
2, 6336, Note_on_c, 1, 78, 76
2, 6400, Note_off_c, 1, 78, 0
2, 6400, Note_on_c, 1, 76, 74
2, 6784, Note_off_c, 1, 76, 0
2, 6784, Note_on_c, 1, 78, 77
2, 6848, Note_off_c, 1, 78, 0
2, 6848, Note_on_c, 1, 79, 79
2, 6912, Note_off_c, 1, 79, 0
2, 6912, Note_on_c, 1, 81, 79
2, 7040, Note_off_c, 1, 81, 0
2, 7040, Note_on_c, 1, 72, 60
2, 7168, Note_off_c, 1, 72, 0
2, 7168, Note_on_c, 1, 71, 71
2, 7296, Note_off_c, 1, 71, 0
2, 7296, Note_on_c, 1, 81, 96
2, 7424, Note_off_c, 1, 81, 0
2, 7424, Note_on_c, 1, 79, 75
2, 7552, Note_off_c, 1, 79, 0
2, 7552, Note_on_c, 1, 71, 57
2, 7680, Note_off_c, 1, 71, 0
2, 7680, Note_on_c, 1, 69, 68
2, 7744, Note_on_c, 1, 71, 69
2, 7745, Note_off_c, 1, 69, 0
2, 7808, Note_on_c, 1, 72, 82
2, 7809, Note_off_c, 1, 71, 0
2, 7868, Note_off_c, 1, 72, 0
2, 7872, Note_on_c, 1, 71, 71
2, 7936, Note_off_c, 1, 71, 0
2, 7936, Note_on_c, 1, 69, 75
2, 8000, Note_off_c, 1, 69, 0
2, 8000, Note_on_c, 1, 67, 69
2, 8064, Note_off_c, 1, 67, 0
2, 8064, Note_on_c, 1, 66, 72
2, 8128, Note_off_c, 1, 66, 0
2, 8128, Note_on_c, 1, 64, 68
2, 8192, Note_off_c, 1, 64, 0
2, 8192, Note_on_c, 1, 63, 70
2, 8320, Note_off_c, 1, 63, 0
2, 8320, Note_on_c, 1, 72, 91
2, 8448, Note_off_c, 1, 72, 0
2, 8448, Note_on_c, 1, 71, 72
2, 8576, Note_off_c, 1, 71, 0
2, 8576, Note_on_c, 1, 76, 90
2, 8704, Note_off_c, 1, 76, 0
2, 8704, Note_on_c, 1, 79, 81
2, 8960, Note_off_c, 1, 79, 0
2, 8960, Note_on_c, 1, 78, 75
2, 8988, Note_off_c, 1, 78, 0
2, 8994, Note_on_c, 1, 79, 75
2, 9021, Note_off_c, 1, 79, 0
2, 9026, Note_on_c, 1, 78, 75
2, 9051, Note_off_c, 1, 78, 0
2, 9056, Note_on_c, 1, 79, 75
2, 9080, Note_off_c, 1, 79, 0
2, 9085, Note_on_c, 1, 78, 75
2, 9108, Note_off_c, 1, 78, 0
2, 9114, Note_on_c, 1, 79, 75
2, 9137, Note_off_c, 1, 79, 0
2, 9145, Note_on_c, 1, 78, 75
2, 9169, Note_off_c, 1, 78, 0
2, 9177, Note_on_c, 1, 79, 75
2, 9202, Note_off_c, 1, 79, 0
2, 9211, Note_on_c, 1, 78, 75
2, 9215, Note_off_c, 1, 78, 0
2, 9216, Note_on_c, 1, 78, 78
2, 9280, Note_on_c, 1, 79, 82
2, 9281, Note_off_c, 1, 78, 0
2, 9344, Note_on_c, 1, 81, 81
2, 9345, Note_off_c, 1, 79, 0
2, 9404, Note_off_c, 1, 81, 0
2, 9408, Note_on_c, 1, 78, 69
2, 9472, Note_off_c, 1, 78, 0
2, 9472, Note_on_c, 1, 75, 69
2, 9536, Note_on_c, 1, 76, 71
2, 9537, Note_off_c, 1, 75, 0
2, 9600, Note_on_c, 1, 78, 81
2, 9601, Note_off_c, 1, 76, 0
2, 9660, Note_off_c, 1, 78, 0
2, 9664, Note_on_c, 1, 75, 65
2, 9728, Note_off_c, 1, 75, 0
2, 9728, Note_on_c, 1, 83, 91
2, 9856, Note_off_c, 1, 83, 0
2, 9856, Note_on_c, 1, 76, 64
2, 9984, Note_off_c, 1, 76, 0
2, 9984, Note_on_c, 1, 78, 80
2, 10112, Note_off_c, 1, 78, 0
2, 10112, Note_on_c, 1, 75, 71
2, 10240, Note_off_c, 1, 75, 0
2, 10240, Note_on_c, 1, 76, 79
2, 10304, Note_off_c, 1, 76, 0
2, 10304, Note_on_c, 1, 74, 70
2, 10368, Note_off_c, 1, 74, 0
2, 10368, Note_on_c, 1, 72, 68
2, 10432, Note_off_c, 1, 72, 0
2, 10432, Note_on_c, 1, 71, 75
2, 10496, Note_off_c, 1, 71, 0
2, 10496, Note_on_c, 1, 69, 70
2, 10624, Note_off_c, 1, 69, 0
2, 10624, Note_on_c, 1, 69, 77
2, 10752, Note_off_c, 1, 69, 0
2, 10752, Note_on_c, 1, 69, 81
2, 10816, Note_off_c, 1, 69, 0
2, 10816, Note_on_c, 1, 71, 82
2, 10880, Note_off_c, 1, 71, 0
2, 10880, Note_on_c, 1, 72, 84
2, 11072, Note_off_c, 1, 72, 0
2, 11072, Note_on_c, 1, 71, 69
2, 11136, Note_off_c, 1, 71, 0
2, 11136, Note_on_c, 1, 69, 69
2, 11200, Note_off_c, 1, 69, 0
2, 11200, Note_on_c, 1, 67, 72
2, 11264, Note_off_c, 1, 67, 0
2, 11264, Note_on_c, 1, 66, 76
2, 11328, Note_off_c, 1, 66, 0
2, 11328, Note_on_c, 1, 67, 78
2, 11392, Note_off_c, 1, 67, 0
2, 11392, Note_on_c, 1, 69, 84
2, 11584, Note_on_c, 1, 67, 72
2, 11587, Note_off_c, 1, 69, 0
2, 11644, Note_off_c, 1, 67, 0
2, 11648, Note_on_c, 1, 66, 77
2, 11712, Note_off_c, 1, 66, 0
2, 11712, Note_on_c, 1, 64, 71
2, 11776, Note_off_c, 1, 64, 0
2, 11776, Note_on_c, 1, 63, 70
2, 11840, Note_off_c, 1, 63, 0
2, 11904, Note_on_c, 1, 71, 94
2, 11968, Note_off_c, 1, 71, 0
2, 12032, Note_on_c, 1, 67, 69
2, 12060, Note_off_c, 1, 67, 0
2, 12064, Note_on_c, 1, 69, 69
2, 12089, Note_off_c, 1, 69, 0
2, 12096, Note_on_c, 1, 67, 69
2, 12121, Note_off_c, 1, 67, 0
2, 12127, Note_on_c, 1, 69, 69
2, 12151, Note_off_c, 1, 69, 0
2, 12160, Note_on_c, 1, 66, 71
2, 12224, Note_on_c, 1, 64, 67
2, 12225, Note_off_c, 1, 66, 0
2, 12284, Note_off_c, 1, 64, 0
2, 12288, Note_on_c, 1, 64, 73
2, 12544, Note_off_c, 1, 64, 0
2, 12608, Note_on_c, 1, 76, 68
2, 12672, Note_on_c, 1, 74, 63
2, 12673, Note_off_c, 1, 76, 0
2, 12736, Note_on_c, 1, 76, 84
2, 12737, Note_off_c, 1, 74, 0
2, 12796, Note_off_c, 1, 76, 0
2, 12800, Note_on_c, 1, 81, 87
2, 12864, Note_off_c, 1, 81, 0
2, 12864, Note_on_c, 1, 80, 68
2, 12928, Note_off_c, 1, 80, 0
2, 12928, Note_on_c, 1, 81, 82
2, 13120, Note_off_c, 1, 81, 0
2, 13120, Note_on_c, 1, 76, 68
2, 13184, Note_on_c, 1, 74, 68
2, 13185, Note_off_c, 1, 76, 0
2, 13248, Note_on_c, 1, 76, 81
2, 13249, Note_off_c, 1, 74, 0
2, 13308, Note_off_c, 1, 76, 0
2, 13312, Note_on_c, 1, 84, 93
2, 13440, Note_on_c, 1, 83, 86
2, 13442, Note_off_c, 1, 84, 0
2, 13622, Note_off_c, 1, 83, 0
2, 13632, Note_on_c, 1, 76, 60
2, 13696, Note_on_c, 1, 74, 54
2, 13697, Note_off_c, 1, 76, 0
2, 13760, Note_on_c, 1, 76, 77
2, 13761, Note_off_c, 1, 74, 0
2, 13820, Note_off_c, 1, 76, 0
2, 13824, Note_on_c, 1, 83, 96
2, 13888, Note_off_c, 1, 83, 0
2, 13888, Note_on_c, 1, 81, 71
2, 13952, Note_off_c, 1, 81, 0
2, 13952, Note_on_c, 1, 83, 81
2, 14144, Note_off_c, 1, 83, 0
2, 14144, Note_on_c, 1, 76, 61
2, 14208, Note_on_c, 1, 74, 52
2, 14209, Note_off_c, 1, 76, 0
2, 14272, Note_on_c, 1, 76, 82
2, 14273, Note_off_c, 1, 74, 0
2, 14332, Note_off_c, 1, 76, 0
2, 14336, Note_on_c, 1, 86, 91
2, 14464, Note_on_c, 1, 84, 90
2, 14466, Note_off_c, 1, 86, 0
2, 14646, Note_off_c, 1, 84, 0
2, 14656, Note_on_c, 1, 76, 60
2, 14720, Note_on_c, 1, 74, 52
2, 14721, Note_off_c, 1, 76, 0
2, 14784, Note_on_c, 1, 76, 82
2, 14785, Note_off_c, 1, 74, 0
2, 14844, Note_off_c, 1, 76, 0
2, 14848, Note_on_c, 1, 84, 91
2, 14912, Note_on_c, 1, 83, 93
2, 14913, Note_off_c, 1, 84, 0
2, 14976, Note_on_c, 1, 81, 70
2, 14977, Note_off_c, 1, 83, 0
2, 15036, Note_off_c, 1, 81, 0
2, 15040, Note_on_c, 1, 79, 69
2, 15104, Note_off_c, 1, 79, 0
2, 15104, Note_on_c, 1, 77, 73
2, 15168, Note_off_c, 1, 77, 0
2, 15168, Note_on_c, 1, 74, 68
2, 15232, Note_off_c, 1, 74, 0
2, 15232, Note_on_c, 1, 72, 72
2, 15296, Note_off_c, 1, 72, 0
2, 15296, Note_on_c, 1, 74, 82
2, 15360, Note_off_c, 1, 74, 0
2, 15360, Note_on_c, 1, 83, 96
2, 15424, Note_on_c, 1, 81, 95
2, 15425, Note_off_c, 1, 83, 0
2, 15488, Note_on_c, 1, 79, 73
2, 15489, Note_off_c, 1, 81, 0
2, 15548, Note_off_c, 1, 79, 0
2, 15552, Note_on_c, 1, 77, 72
2, 15616, Note_off_c, 1, 77, 0
2, 15616, Note_on_c, 1, 76, 73
2, 15680, Note_off_c, 1, 76, 0
2, 15680, Note_on_c, 1, 72, 70
2, 15744, Note_off_c, 1, 72, 0
2, 15744, Note_on_c, 1, 71, 72
2, 15808, Note_off_c, 1, 71, 0
2, 15808, Note_on_c, 1, 72, 81
2, 15872, Note_off_c, 1, 72, 0
2, 15872, Note_on_c, 1, 81, 95
2, 15936, Note_on_c, 1, 79, 91
2, 15937, Note_off_c, 1, 81, 0
2, 16000, Note_on_c, 1, 77, 72
2, 16001, Note_off_c, 1, 79, 0
2, 16060, Note_off_c, 1, 77, 0
2, 16064, Note_on_c, 1, 76, 72
2, 16128, Note_off_c, 1, 76, 0
2, 16128, Note_on_c, 1, 74, 69
2, 16192, Note_off_c, 1, 74, 0
2, 16192, Note_on_c, 1, 71, 66
2, 16256, Note_on_c, 1, 69, 63
2, 16257, Note_off_c, 1, 71, 0
2, 16320, Note_on_c, 1, 71, 84
2, 16321, Note_off_c, 1, 69, 0
2, 16380, Note_off_c, 1, 71, 0
2, 16384, Note_on_c, 1, 80, 90
2, 16448, Note_on_c, 1, 81, 96
2, 16449, Note_off_c, 1, 80, 0
2, 16512, Note_on_c, 1, 80, 78
2, 16513, Note_off_c, 1, 81, 0
2, 16572, Note_off_c, 1, 80, 0
2, 16576, Note_on_c, 1, 78, 71
2, 16640, Note_off_c, 1, 78, 0
2, 16640, Note_on_c, 1, 76, 77
2, 16704, Note_off_c, 1, 76, 0
2, 16704, Note_on_c, 1, 74, 73
2, 16768, Note_off_c, 1, 74, 0
2, 16768, Note_on_c, 1, 72, 68
2, 16832, Note_off_c, 1, 72, 0
2, 16832, Note_on_c, 1, 71, 64
2, 16896, Note_off_c, 1, 71, 0
2, 16896, Note_on_c, 1, 72, 83
2, 16960, Note_off_c, 1, 72, 0
2, 16960, Note_on_c, 1, 74, 83
2, 17024, Note_off_c, 1, 74, 0
2, 17024, Note_on_c, 1, 72, 70
2, 17088, Note_off_c, 1, 72, 0
2, 17088, Note_on_c, 1, 71, 72
2, 17152, Note_off_c, 1, 71, 0
2, 17152, Note_on_c, 1, 69, 72
2, 17216, Note_off_c, 1, 69, 0
2, 17216, Note_on_c, 1, 81, 98
2, 17280, Note_off_c, 1, 81, 0
2, 17280, Note_on_c, 1, 76, 68
2, 17344, Note_off_c, 1, 76, 0
2, 17344, Note_on_c, 1, 79, 81
2, 17408, Note_off_c, 1, 79, 0
2, 17408, Note_on_c, 1, 77, 73
2, 17472, Note_on_c, 1, 79, 78
2, 17473, Note_off_c, 1, 77, 0
2, 17536, Note_on_c, 1, 77, 69
2, 17537, Note_off_c, 1, 79, 0
2, 17596, Note_off_c, 1, 77, 0
2, 17600, Note_on_c, 1, 76, 67
2, 17664, Note_off_c, 1, 76, 0
2, 17664, Note_on_c, 1, 74, 74
2, 17728, Note_off_c, 1, 74, 0
2, 17728, Note_on_c, 1, 72, 67
2, 17792, Note_off_c, 1, 72, 0
2, 17792, Note_on_c, 1, 71, 73
2, 17856, Note_off_c, 1, 71, 0
2, 17856, Note_on_c, 1, 69, 68
2, 17920, Note_off_c, 1, 69, 0
2, 17920, Note_on_c, 1, 71, 87
2, 17984, Note_off_c, 1, 71, 0
2, 17984, Note_on_c, 1, 72, 81
2, 18048, Note_off_c, 1, 72, 0
2, 18048, Note_on_c, 1, 71, 72
2, 18112, Note_off_c, 1, 71, 0
2, 18112, Note_on_c, 1, 69, 76
2, 18176, Note_off_c, 1, 69, 0
2, 18176, Note_on_c, 1, 67, 70
2, 18240, Note_off_c, 1, 67, 0
2, 18240, Note_on_c, 1, 79, 98
2, 18304, Note_off_c, 1, 79, 0
2, 18304, Note_on_c, 1, 74, 68
2, 18368, Note_off_c, 1, 74, 0
2, 18368, Note_on_c, 1, 77, 83
2, 18432, Note_off_c, 1, 77, 0
2, 18432, Note_on_c, 1, 76, 75
2, 18496, Note_on_c, 1, 77, 79
2, 18497, Note_off_c, 1, 76, 0
2, 18560, Note_on_c, 1, 76, 72
2, 18561, Note_off_c, 1, 77, 0
2, 18620, Note_off_c, 1, 76, 0
2, 18624, Note_on_c, 1, 74, 71
2, 18688, Note_off_c, 1, 74, 0
2, 18688, Note_on_c, 1, 72, 71
2, 18752, Note_off_c, 1, 72, 0
2, 18752, Note_on_c, 1, 71, 72
2, 18816, Note_off_c, 1, 71, 0
2, 18816, Note_on_c, 1, 69, 72
2, 18880, Note_off_c, 1, 69, 0
2, 18880, Note_on_c, 1, 67, 68
2, 18944, Note_off_c, 1, 67, 0
2, 18944, Note_on_c, 1, 69, 80
2, 19008, Note_off_c, 1, 69, 0
2, 19008, Note_on_c, 1, 70, 82
2, 19072, Note_off_c, 1, 70, 0
2, 19072, Note_on_c, 1, 69, 74
2, 19136, Note_off_c, 1, 69, 0
2, 19136, Note_on_c, 1, 67, 71
2, 19200, Note_off_c, 1, 67, 0
2, 19200, Note_on_c, 1, 65, 69
2, 19264, Note_off_c, 1, 65, 0
2, 19264, Note_on_c, 1, 77, 98
2, 19328, Note_off_c, 1, 77, 0
2, 19328, Note_on_c, 1, 72, 69
2, 19392, Note_off_c, 1, 72, 0
2, 19392, Note_on_c, 1, 76, 81
2, 19456, Note_off_c, 1, 76, 0
2, 19456, Note_on_c, 1, 74, 71
2, 19520, Note_on_c, 1, 76, 76
2, 19521, Note_off_c, 1, 74, 0
2, 19584, Note_on_c, 1, 74, 70
2, 19585, Note_off_c, 1, 76, 0
2, 19644, Note_off_c, 1, 74, 0
2, 19648, Note_on_c, 1, 72, 72
2, 19712, Note_off_c, 1, 72, 0
2, 19712, Note_on_c, 1, 71, 74
2, 19776, Note_off_c, 1, 71, 0
2, 19776, Note_on_c, 1, 69, 72
2, 19840, Note_off_c, 1, 69, 0
2, 19840, Note_on_c, 1, 68, 73
2, 19904, Note_off_c, 1, 68, 0
2, 19904, Note_on_c, 1, 66, 67
2, 19968, Note_off_c, 1, 66, 0
2, 19968, Note_on_c, 1, 68, 83
2, 20032, Note_off_c, 1, 68, 0
2, 20032, Note_on_c, 1, 69, 82
2, 20096, Note_off_c, 1, 69, 0
2, 20096, Note_on_c, 1, 68, 74
2, 20160, Note_off_c, 1, 68, 0
2, 20160, Note_on_c, 1, 66, 70
2, 20224, Note_off_c, 1, 66, 0
2, 20224, Note_on_c, 1, 64, 69
2, 20288, Note_off_c, 1, 64, 0
2, 20288, Note_on_c, 1, 76, 99
2, 20352, Note_off_c, 1, 76, 0
2, 20352, Note_on_c, 1, 71, 70
2, 20416, Note_off_c, 1, 71, 0
2, 20416, Note_on_c, 1, 74, 79
2, 20480, Note_off_c, 1, 74, 0
2, 20480, Note_on_c, 1, 72, 73
2, 20544, Note_on_c, 1, 74, 78
2, 20545, Note_off_c, 1, 72, 0
2, 20608, Note_on_c, 1, 72, 68
2, 20609, Note_off_c, 1, 74, 0
2, 20668, Note_off_c, 1, 72, 0
2, 20672, Note_on_c, 1, 71, 74
2, 20736, Note_off_c, 1, 71, 0
2, 20736, Note_on_c, 1, 69, 69
2, 20800, Note_off_c, 1, 69, 0
2, 20800, Note_on_c, 1, 81, 98
2, 20864, Note_off_c, 1, 81, 0
2, 20864, Note_on_c, 1, 76, 68
2, 20928, Note_off_c, 1, 76, 0
2, 20928, Note_on_c, 1, 79, 82
2, 20992, Note_off_c, 1, 79, 0
2, 20992, Note_on_c, 1, 77, 74
2, 21056, Note_on_c, 1, 79, 78
2, 21057, Note_off_c, 1, 77, 0
2, 21120, Note_on_c, 1, 77, 76
2, 21121, Note_off_c, 1, 79, 0
2, 21180, Note_off_c, 1, 77, 0
2, 21184, Note_on_c, 1, 76, 72
2, 21248, Note_off_c, 1, 76, 0
2, 21248, Note_on_c, 1, 74, 69
2, 21312, Note_off_c, 1, 74, 0
2, 21312, Note_on_c, 1, 77, 84
2, 21376, Note_off_c, 1, 77, 0
2, 21376, Note_on_c, 1, 71, 66
2, 21440, Note_off_c, 1, 71, 0
2, 21440, Note_on_c, 1, 74, 80
2, 21504, Note_off_c, 1, 74, 0
2, 21504, Note_on_c, 1, 76, 79
2, 21568, Note_off_c, 1, 76, 0
2, 21568, Note_on_c, 1, 74, 76
2, 21632, Note_off_c, 1, 74, 0
2, 21632, Note_on_c, 1, 72, 72
2, 21696, Note_off_c, 1, 72, 0
2, 21696, Note_on_c, 1, 76, 83
2, 21760, Note_off_c, 1, 76, 0
2, 21760, Note_on_c, 1, 74, 75
2, 21824, Note_off_c, 1, 74, 0
2, 21824, Note_on_c, 1, 72, 70
2, 21888, Note_off_c, 1, 72, 0
2, 21888, Note_on_c, 1, 71, 68
2, 21952, Note_off_c, 1, 71, 0
2, 21952, Note_on_c, 1, 74, 83
2, 22016, Note_off_c, 1, 74, 0
2, 22016, Note_on_c, 1, 72, 72
2, 22080, Note_off_c, 1, 72, 0
2, 22144, Note_on_c, 1, 69, 72
2, 22208, Note_off_c, 1, 69, 0
2, 22336, Note_on_c, 1, 64, 68
2, 22400, Note_off_c, 1, 64, 0
2, 22400, Note_on_c, 1, 69, 86
2, 22464, Note_off_c, 1, 69, 0
2, 22464, Note_on_c, 1, 72, 86
2, 22528, Note_off_c, 1, 72, 0
2, 22528, Note_on_c, 1, 77, 85
2, 22560, Note_off_c, 1, 77, 0
2, 22560, Note_on_c, 1, 79, 79
2, 22592, Note_off_c, 1, 79, 0
2, 22592, Note_on_c, 1, 81, 82
2, 22713, Note_off_c, 1, 81, 0
2, 22720, Note_on_c, 1, 77, 69
2, 22784, Note_off_c, 1, 77, 0
2, 22784, Note_on_c, 1, 75, 69
2, 22816, Note_off_c, 1, 75, 0
2, 22816, Note_on_c, 1, 76, 79
2, 22848, Note_off_c, 1, 76, 0
2, 22848, Note_on_c, 1, 78, 83
2, 22969, Note_off_c, 1, 78, 0
2, 22976, Note_on_c, 1, 75, 71
2, 23040, Note_off_c, 1, 75, 0
2, 23040, Note_on_c, 1, 76, 79
2, 23104, Note_off_c, 1, 76, 0
2, 23104, Note_on_c, 1, 71, 69
2, 23168, Note_off_c, 1, 71, 0
2, 23168, Note_on_c, 1, 67, 60
2, 23232, Note_off_c, 1, 67, 0
2, 23232, Note_on_c, 1, 64, 70
2, 23296, Note_on_c, 1, 63, 65
2, 23297, Note_off_c, 1, 64, 0
2, 23360, Note_on_c, 1, 64, 81
2, 23361, Note_off_c, 1, 63, 0
2, 23420, Note_off_c, 1, 64, 0
2, 23424, Note_on_c, 1, 67, 79
2, 23488, Note_off_c, 1, 67, 0
2, 23488, Note_on_c, 1, 71, 88
2, 23552, Note_off_c, 1, 71, 0
2, 23552, Note_on_c, 1, 76, 86
2, 23584, Note_off_c, 1, 76, 0
2, 23584, Note_on_c, 1, 77, 78
2, 23616, Note_off_c, 1, 77, 0
2, 23616, Note_on_c, 1, 79, 82
2, 23737, Note_off_c, 1, 79, 0
2, 23744, Note_on_c, 1, 76, 66
2, 23808, Note_off_c, 1, 76, 0
2, 23808, Note_on_c, 1, 73, 70
2, 23840, Note_off_c, 1, 73, 0
2, 23840, Note_on_c, 1, 74, 81
2, 23872, Note_off_c, 1, 74, 0
2, 23872, Note_on_c, 1, 76, 80
2, 23993, Note_off_c, 1, 76, 0
2, 24000, Note_on_c, 1, 73, 73
2, 24064, Note_off_c, 1, 73, 0
2, 24064, Note_on_c, 1, 74, 79
2, 24128, Note_off_c, 1, 74, 0
2, 24128, Note_on_c, 1, 69, 63
2, 24192, Note_off_c, 1, 69, 0
2, 24192, Note_on_c, 1, 65, 69
2, 24256, Note_off_c, 1, 65, 0
2, 24256, Note_on_c, 1, 62, 70
2, 24320, Note_on_c, 1, 61, 70
2, 24321, Note_off_c, 1, 62, 0
2, 24384, Note_on_c, 1, 62, 77
2, 24385, Note_off_c, 1, 61, 0
2, 24444, Note_off_c, 1, 62, 0
2, 24448, Note_on_c, 1, 65, 82
2, 24512, Note_off_c, 1, 65, 0
2, 24512, Note_on_c, 1, 69, 89
2, 24576, Note_off_c, 1, 69, 0
2, 24576, Note_on_c, 1, 74, 85
2, 24608, Note_off_c, 1, 74, 0
2, 24608, Note_on_c, 1, 76, 85
2, 24640, Note_off_c, 1, 76, 0
2, 24640, Note_on_c, 1, 77, 80
2, 24761, Note_off_c, 1, 77, 0
2, 24768, Note_on_c, 1, 74, 69
2, 24832, Note_off_c, 1, 74, 0
2, 24832, Note_on_c, 1, 71, 68
2, 24864, Note_off_c, 1, 71, 0
2, 24864, Note_on_c, 1, 72, 81
2, 24896, Note_off_c, 1, 72, 0
2, 24896, Note_on_c, 1, 74, 79
2, 25017, Note_off_c, 1, 74, 0
2, 25024, Note_on_c, 1, 71, 70
2, 25088, Note_off_c, 1, 71, 0
2, 25088, Note_on_c, 1, 72, 78
2, 25152, Note_off_c, 1, 72, 0
2, 25152, Note_on_c, 1, 67, 64
2, 25216, Note_off_c, 1, 67, 0
2, 25216, Note_on_c, 1, 69, 79
2, 25280, Note_off_c, 1, 69, 0
2, 25280, Note_on_c, 1, 71, 81
2, 25344, Note_off_c, 1, 71, 0
2, 25344, Note_on_c, 1, 72, 83
2, 25408, Note_off_c, 1, 72, 0
2, 25408, Note_on_c, 1, 67, 70
2, 25472, Note_off_c, 1, 67, 0
2, 25472, Note_on_c, 1, 74, 92
2, 25536, Note_off_c, 1, 74, 0
2, 25536, Note_on_c, 1, 67, 66
2, 25600, Note_off_c, 1, 67, 0
2, 25600, Note_on_c, 1, 76, 104
2, 25664, Note_off_c, 1, 76, 0
2, 25664, Note_on_c, 1, 71, 74
2, 25728, Note_off_c, 1, 71, 0
2, 25728, Note_on_c, 1, 72, 93
2, 25792, Note_off_c, 1, 72, 0
2, 25792, Note_on_c, 1, 74, 90
2, 25856, Note_off_c, 1, 74, 0
2, 25856, Note_on_c, 1, 76, 93
2, 25920, Note_off_c, 1, 76, 0
2, 25920, Note_on_c, 1, 72, 83
2, 25984, Note_off_c, 1, 72, 0
2, 25984, Note_on_c, 1, 78, 100
2, 26048, Note_off_c, 1, 78, 0
2, 26048, Note_on_c, 1, 72, 80
2, 26112, Note_off_c, 1, 72, 0
2, 26112, Note_on_c, 1, 79, 105
2, 26176, Note_off_c, 1, 79, 0
2, 26176, Note_on_c, 1, 67, 67
2, 26240, Note_off_c, 1, 67, 0
2, 26240, Note_on_c, 1, 71, 101
2, 26304, Note_off_c, 1, 71, 0
2, 26304, Note_on_c, 1, 74, 105
2, 26368, Note_off_c, 1, 74, 0
2, 26368, Note_on_c, 1, 79, 110
2, 26688, Note_off_c, 1, 79, 0
2, 26688, Note_on_c, 1, 72, 80
2, 26752, Note_off_c, 1, 72, 0
2, 26752, Note_on_c, 1, 76, 106
2, 26816, Note_off_c, 1, 76, 0
2, 26816, Note_on_c, 1, 79, 104
2, 26880, Note_off_c, 1, 79, 0
2, 26880, Note_on_c, 1, 84, 110
2, 27200, Note_off_c, 1, 84, 0
2, 27200, Note_on_c, 1, 72, 72
2, 27264, Note_off_c, 1, 72, 0
2, 27264, Note_on_c, 1, 77, 107
2, 27328, Note_off_c, 1, 77, 0
2, 27328, Note_on_c, 1, 81, 111
2, 27392, Note_off_c, 1, 81, 0
2, 27392, Note_on_c, 1, 84, 109
2, 27776, Note_off_c, 1, 84, 0
2, 27776, Note_on_c, 1, 72, 71
2, 27904, Note_off_c, 1, 72, 0
2, 27904, Note_on_c, 1, 74, 99
2, 28032, Note_off_c, 1, 74, 0
2, 28032, Note_on_c, 1, 83, 119
2, 28160, Note_off_c, 1, 83, 0
2, 28160, Note_on_c, 1, 84, 111
2, 28224, Note_off_c, 1, 84, 0
2, 28224, Note_on_c, 1, 79, 87
2, 28288, Note_off_c, 1, 79, 0
2, 28288, Note_on_c, 1, 76, 86
2, 28352, Note_off_c, 1, 76, 0
2, 28352, Note_on_c, 1, 72, 84
2, 28416, Note_off_c, 1, 72, 0
2, 28416, Note_on_c, 1, 60, 70
2, 28480, Note_off_c, 1, 60, 0
2, 28480, Note_on_c, 1, 72, 114
2, 28544, Note_on_c, 1, 71, 111
2, 28545, Note_off_c, 1, 72, 0
2, 28608, Note_on_c, 1, 72, 100
2, 28609, Note_off_c, 1, 71, 0
2, 28668, Note_off_c, 1, 72, 0
2, 28672, Note_on_c, 1, 74, 107
2, 28736, Note_off_c, 1, 74, 0
2, 28736, Note_on_c, 1, 72, 91
2, 28800, Note_on_c, 1, 71, 89
2, 28801, Note_off_c, 1, 72, 0
2, 28864, Note_on_c, 1, 72, 106
2, 28865, Note_off_c, 1, 71, 0
2, 28924, Note_off_c, 1, 72, 0
2, 28928, Note_on_c, 1, 76, 106
2, 28992, Note_off_c, 1, 76, 0
2, 28992, Note_on_c, 1, 72, 90
2, 29056, Note_on_c, 1, 71, 84
2, 29057, Note_off_c, 1, 72, 0
2, 29120, Note_on_c, 1, 72, 100
2, 29121, Note_off_c, 1, 71, 0
2, 29180, Note_off_c, 1, 72, 0
2, 29184, Note_on_c, 1, 77, 111
2, 29248, Note_off_c, 1, 77, 0
2, 29248, Note_on_c, 1, 72, 89
2, 29312, Note_on_c, 1, 71, 84
2, 29313, Note_off_c, 1, 72, 0
2, 29376, Note_on_c, 1, 72, 104
2, 29377, Note_off_c, 1, 71, 0
2, 29436, Note_off_c, 1, 72, 0
2, 29440, Note_on_c, 1, 79, 115
2, 29504, Note_off_c, 1, 79, 0
2, 29504, Note_on_c, 1, 72, 83
2, 29568, Note_on_c, 1, 71, 79
2, 29569, Note_off_c, 1, 72, 0
2, 29632, Note_on_c, 1, 72, 102
2, 29633, Note_off_c, 1, 71, 0
2, 29692, Note_off_c, 1, 72, 0
2, 29696, Note_on_c, 1, 81, 120
2, 29760, Note_on_c, 1, 82, 127
2, 29761, Note_off_c, 1, 81, 0
2, 29824, Note_on_c, 1, 81, 97
2, 29825, Note_off_c, 1, 82, 0
2, 29884, Note_off_c, 1, 81, 0
2, 29888, Note_on_c, 1, 79, 90
2, 29952, Note_off_c, 1, 79, 0
2, 29952, Note_on_c, 1, 77, 89
2, 30016, Note_off_c, 1, 77, 0
2, 30016, Note_on_c, 1, 76, 97
2, 30080, Note_off_c, 1, 76, 0
2, 30080, Note_on_c, 1, 74, 92
2, 30144, Note_off_c, 1, 74, 0
2, 30144, Note_on_c, 1, 72, 92
2, 30208, Note_off_c, 1, 72, 0
2, 30208, Note_on_c, 1, 71, 92
2, 30336, Note_off_c, 1, 71, 0
2, 30336, Note_on_c, 1, 67, 86
2, 30464, Note_off_c, 1, 67, 0
2, 30464, Note_on_c, 1, 83, 124
2, 30848, Note_off_c, 1, 83, 0
2, 30848, Note_on_c, 1, 81, 94
2, 30912, Note_off_c, 1, 81, 0
2, 30912, Note_on_c, 1, 80, 92
2, 30976, Note_off_c, 1, 80, 0
2, 30976, Note_on_c, 1, 81, 106
2, 31040, Note_off_c, 1, 81, 0
2, 31104, Note_on_c, 1, 84, 107
2, 31360, Note_off_c, 1, 84, 0
2, 31360, Note_on_c, 1, 78, 83
2, 31424, Note_off_c, 1, 78, 0
2, 31424, Note_on_c, 1, 79, 103
2, 31488, Note_off_c, 1, 79, 0
2, 31488, Note_on_c, 1, 81, 107
2, 31552, Note_on_c, 1, 78, 99
2, 31553, Note_off_c, 1, 81, 0
2, 31612, Note_off_c, 1, 78, 0
2, 31616, Note_on_c, 1, 79, 99
2, 31680, Note_on_c, 1, 76, 90
2, 31681, Note_off_c, 1, 79, 0
2, 31740, Note_off_c, 1, 76, 0
2, 31744, Note_on_c, 1, 78, 103
2, 31808, Note_off_c, 1, 78, 0
2, 31808, Note_on_c, 1, 74, 89
2, 31872, Note_on_c, 1, 73, 85
2, 31873, Note_off_c, 1, 74, 0
2, 31936, Note_on_c, 1, 74, 103
2, 31937, Note_off_c, 1, 73, 0
2, 31996, Note_off_c, 1, 74, 0
2, 32000, Note_on_c, 1, 78, 107
2, 32064, Note_off_c, 1, 78, 0
2, 32064, Note_on_c, 1, 74, 86
2, 32128, Note_off_c, 1, 74, 0
2, 32128, Note_on_c, 1, 81, 115
2, 32192, Note_off_c, 1, 81, 0
2, 32192, Note_on_c, 1, 78, 89
2, 32256, Note_off_c, 1, 78, 0
2, 32256, Note_on_c, 1, 86, 123
2, 32384, Note_off_c, 1, 86, 0
2, 32384, Note_on_c, 1, 74, 73
2, 32512, Note_off_c, 1, 74, 0
2, 32512, Note_on_c, 1, 81, 114
2, 32896, Note_off_c, 1, 81, 0
2, 32896, Note_on_c, 1, 79, 96
2, 32960, Note_off_c, 1, 79, 0
2, 32960, Note_on_c, 1, 78, 92
2, 33024, Note_off_c, 1, 78, 0
2, 33024, Note_on_c, 1, 79, 102
2, 33152, Note_off_c, 1, 79, 0
2, 33152, Note_on_c, 1, 83, 107
2, 33408, Note_off_c, 1, 83, 0
2, 33408, Note_on_c, 1, 76, 80
2, 33472, Note_off_c, 1, 76, 0
2, 33472, Note_on_c, 1, 78, 102
2, 33536, Note_off_c, 1, 78, 0
2, 33536, Note_on_c, 1, 79, 103
2, 33600, Note_on_c, 1, 76, 89
2, 33601, Note_off_c, 1, 79, 0
2, 33660, Note_off_c, 1, 76, 0
2, 33664, Note_on_c, 1, 78, 98
2, 33728, Note_on_c, 1, 75, 95
2, 33729, Note_off_c, 1, 78, 0
2, 33788, Note_off_c, 1, 75, 0
2, 33792, Note_on_c, 1, 76, 101
2, 33856, Note_off_c, 1, 76, 0
2, 33856, Note_on_c, 1, 72, 84
2, 33920, Note_on_c, 1, 71, 80
2, 33921, Note_off_c, 1, 72, 0
2, 33984, Note_on_c, 1, 72, 101
2, 33985, Note_off_c, 1, 71, 0
2, 34044, Note_off_c, 1, 72, 0
2, 34048, Note_on_c, 1, 76, 112
2, 34112, Note_off_c, 1, 76, 0
2, 34112, Note_on_c, 1, 72, 88
2, 34176, Note_off_c, 1, 72, 0
2, 34176, Note_on_c, 1, 79, 114
2, 34240, Note_off_c, 1, 79, 0
2, 34240, Note_on_c, 1, 76, 92
2, 34304, Note_off_c, 1, 76, 0
2, 34304, Note_on_c, 1, 84, 116
2, 34432, Note_off_c, 1, 84, 0
2, 34432, Note_on_c, 1, 72, 74
2, 34560, Note_off_c, 1, 72, 0
2, 34560, Note_on_c, 1, 79, 106
2, 34944, Note_off_c, 1, 79, 0
2, 34944, Note_on_c, 1, 78, 94
2, 35008, Note_off_c, 1, 78, 0
2, 35008, Note_on_c, 1, 79, 97
2, 35072, Note_off_c, 1, 79, 0
2, 35072, Note_on_c, 1, 81, 108
2, 35200, Note_off_c, 1, 81, 0
2, 35200, Note_on_c, 1, 72, 80
2, 35328, Note_off_c, 1, 72, 0
2, 35328, Note_on_c, 1, 71, 89
2, 35456, Note_off_c, 1, 71, 0
2, 35456, Note_on_c, 1, 81, 119
2, 35584, Note_off_c, 1, 81, 0
2, 35584, Note_on_c, 1, 79, 93
2, 35712, Note_off_c, 1, 79, 0
2, 35712, Note_on_c, 1, 71, 77
2, 35840, Note_off_c, 1, 71, 0
2, 35840, Note_on_c, 1, 69, 84
2, 35904, Note_on_c, 1, 71, 86
2, 35905, Note_off_c, 1, 69, 0
2, 35968, Note_on_c, 1, 72, 100
2, 35969, Note_off_c, 1, 71, 0
2, 36028, Note_off_c, 1, 72, 0
2, 36032, Note_on_c, 1, 71, 96
2, 36096, Note_off_c, 1, 71, 0
2, 36096, Note_on_c, 1, 69, 93
2, 36160, Note_off_c, 1, 69, 0
2, 36160, Note_on_c, 1, 67, 88
2, 36224, Note_off_c, 1, 67, 0
2, 36224, Note_on_c, 1, 66, 94
2, 36288, Note_off_c, 1, 66, 0
2, 36288, Note_on_c, 1, 64, 92
2, 36352, Note_off_c, 1, 64, 0
2, 36352, Note_on_c, 1, 63, 94
2, 36480, Note_off_c, 1, 63, 0
2, 36480, Note_on_c, 1, 72, 122
2, 36608, Note_off_c, 1, 72, 0
2, 36608, Note_on_c, 1, 71, 98
2, 36736, Note_off_c, 1, 71, 0
2, 36736, Note_on_c, 1, 76, 110
2, 36864, Note_off_c, 1, 76, 0
2, 36864, Note_on_c, 1, 79, 107
2, 37120, Note_off_c, 1, 79, 0
2, 37120, Note_on_c, 1, 78, 98
2, 37148, Note_off_c, 1, 78, 0
2, 37154, Note_on_c, 1, 79, 98
2, 37181, Note_off_c, 1, 79, 0
2, 37186, Note_on_c, 1, 78, 98
2, 37211, Note_off_c, 1, 78, 0
2, 37216, Note_on_c, 1, 79, 98
2, 37240, Note_off_c, 1, 79, 0
2, 37245, Note_on_c, 1, 78, 98
2, 37268, Note_off_c, 1, 78, 0
2, 37274, Note_on_c, 1, 79, 98
2, 37297, Note_off_c, 1, 79, 0
2, 37305, Note_on_c, 1, 78, 98
2, 37329, Note_off_c, 1, 78, 0
2, 37337, Note_on_c, 1, 79, 98
2, 37362, Note_off_c, 1, 79, 0
2, 37371, Note_on_c, 1, 78, 98
2, 37375, Note_off_c, 1, 78, 0
2, 37376, Note_on_c, 1, 78, 97
2, 37440, Note_on_c, 1, 79, 100
2, 37441, Note_off_c, 1, 78, 0
2, 37504, Note_on_c, 1, 81, 106
2, 37505, Note_off_c, 1, 79, 0
2, 37564, Note_off_c, 1, 81, 0
2, 37568, Note_on_c, 1, 79, 92
2, 37632, Note_off_c, 1, 79, 0
2, 37632, Note_on_c, 1, 78, 94
2, 37696, Note_off_c, 1, 78, 0
2, 37696, Note_on_c, 1, 81, 107
2, 37760, Note_off_c, 1, 81, 0
2, 37760, Note_on_c, 1, 76, 86
2, 37824, Note_off_c, 1, 76, 0
2, 37824, Note_on_c, 1, 81, 109
2, 37888, Note_off_c, 1, 81, 0
2, 37888, Note_on_c, 1, 75, 86
2, 37952, Note_on_c, 1, 76, 85
2, 37953, Note_off_c, 1, 75, 0
2, 38016, Note_on_c, 1, 78, 105
2, 38017, Note_off_c, 1, 76, 0
2, 38076, Note_off_c, 1, 78, 0
2, 38080, Note_on_c, 1, 76, 94
2, 38144, Note_off_c, 1, 76, 0
2, 38144, Note_on_c, 1, 75, 90
2, 38208, Note_off_c, 1, 75, 0
2, 38208, Note_on_c, 1, 78, 107
2, 38272, Note_off_c, 1, 78, 0
2, 38272, Note_on_c, 1, 72, 83
2, 38336, Note_off_c, 1, 72, 0
2, 38336, Note_on_c, 1, 78, 108
2, 38400, Note_off_c, 1, 78, 0
2, 38400, Note_on_c, 1, 69, 76
2, 38464, Note_on_c, 1, 71, 73
2, 38465, Note_off_c, 1, 69, 0
2, 38528, Note_on_c, 1, 72, 99
2, 38529, Note_off_c, 1, 71, 0
2, 38588, Note_off_c, 1, 72, 0
2, 38592, Note_on_c, 1, 71, 93
2, 38656, Note_off_c, 1, 71, 0
2, 38656, Note_on_c, 1, 69, 91
2, 38720, Note_off_c, 1, 69, 0
2, 38720, Note_on_c, 1, 72, 105
2, 38784, Note_off_c, 1, 72, 0
2, 38784, Note_on_c, 1, 67, 85
2, 38848, Note_off_c, 1, 67, 0
2, 38848, Note_on_c, 1, 72, 110
2, 38912, Note_off_c, 1, 72, 0
2, 38912, Note_on_c, 1, 66, 86
2, 38976, Note_on_c, 1, 67, 89
2, 38977, Note_off_c, 1, 66, 0
2, 39040, Note_on_c, 1, 69, 101
2, 39041, Note_off_c, 1, 67, 0
2, 39100, Note_off_c, 1, 69, 0
2, 39104, Note_on_c, 1, 67, 94
2, 39168, Note_off_c, 1, 67, 0
2, 39168, Note_on_c, 1, 66, 95
2, 39232, Note_off_c, 1, 66, 0
2, 39232, Note_on_c, 1, 69, 106
2, 39296, Note_off_c, 1, 69, 0
2, 39296, Note_on_c, 1, 64, 87
2, 39360, Note_off_c, 1, 64, 0
2, 39360, Note_on_c, 1, 69, 112
2, 39424, Note_off_c, 1, 69, 0
2, 39424, Note_on_c, 1, 63, 89
2, 39488, Note_off_c, 1, 63, 0
2, 39488, Note_on_c, 1, 69, 114
2, 39552, Note_off_c, 1, 69, 0
2, 39552, Note_on_c, 1, 59, 90
2, 39616, Note_off_c, 1, 59, 0
2, 39616, Note_on_c, 1, 61, 109
2, 39680, Note_off_c, 1, 61, 0
2, 39680, Note_on_c, 1, 63, 104
2, 39744, Note_off_c, 1, 63, 0
2, 39744, Note_on_c, 1, 64, 101
2, 39808, Note_off_c, 1, 64, 0
2, 39808, Note_on_c, 1, 66, 104
2, 39872, Note_off_c, 1, 66, 0
2, 39872, Note_on_c, 1, 67, 97
2, 39936, Note_off_c, 1, 67, 0
2, 39936, Note_on_c, 1, 69, 108
2, 40000, Note_on_c, 1, 71, 103
2, 40001, Note_off_c, 1, 69, 0
2, 40060, Note_off_c, 1, 71, 0
2, 40064, Note_on_c, 1, 73, 108
2, 40128, Note_off_c, 1, 73, 0
2, 40128, Note_on_c, 1, 75, 108
2, 40192, Note_off_c, 1, 75, 0
2, 40192, Note_on_c, 1, 76, 114
2, 40256, Note_off_c, 1, 76, 0
2, 40256, Note_on_c, 1, 78, 111
2, 40320, Note_off_c, 1, 78, 0
2, 40320, Note_on_c, 1, 79, 113
2, 40384, Note_off_c, 1, 79, 0
2, 40384, Note_on_c, 1, 81, 118
2, 40448, Note_off_c, 1, 81, 0
2, 40448, Note_on_c, 1, 83, 105
2, 40576, Note_off_c, 1, 83, 0
2, 40576, Note_on_c, 1, 76, 82
2, 40704, Note_off_c, 1, 76, 0
2, 40704, Note_on_c, 1, 78, 105
2, 40832, Note_off_c, 1, 78, 0
2, 40832, Note_on_c, 1, 75, 89
2, 40960, Note_off_c, 1, 75, 0
2, 40960, Note_on_c, 1, 76, 101
2, 41024, Note_off_c, 1, 76, 0
2, 41024, Note_on_c, 1, 74, 91
2, 41088, Note_off_c, 1, 74, 0
2, 41088, Note_on_c, 1, 72, 90
2, 41152, Note_off_c, 1, 72, 0
2, 41152, Note_on_c, 1, 71, 94
2, 41216, Note_off_c, 1, 71, 0
2, 41216, Note_on_c, 1, 69, 91
2, 41344, Note_off_c, 1, 69, 0
2, 41344, Note_on_c, 1, 69, 94
2, 41472, Note_off_c, 1, 69, 0
2, 41472, Note_on_c, 1, 69, 95
2, 41536, Note_off_c, 1, 69, 0
2, 41536, Note_on_c, 1, 71, 104
2, 41600, Note_off_c, 1, 71, 0
2, 41600, Note_on_c, 1, 72, 104
2, 41792, Note_off_c, 1, 72, 0
2, 41792, Note_on_c, 1, 71, 88
2, 41856, Note_off_c, 1, 71, 0
2, 41856, Note_on_c, 1, 69, 90
2, 41920, Note_off_c, 1, 69, 0
2, 41920, Note_on_c, 1, 67, 90
2, 41984, Note_off_c, 1, 67, 0
2, 41984, Note_on_c, 1, 66, 94
2, 42048, Note_off_c, 1, 66, 0
2, 42048, Note_on_c, 1, 67, 101
2, 42112, Note_off_c, 1, 67, 0
2, 42112, Note_on_c, 1, 69, 100
2, 42304, Note_on_c, 1, 67, 92
2, 42307, Note_off_c, 1, 69, 0
2, 42368, Note_on_c, 1, 66, 89
2, 42369, Note_off_c, 1, 67, 0
2, 42428, Note_off_c, 1, 66, 0
2, 42432, Note_on_c, 1, 64, 92
2, 42496, Note_off_c, 1, 64, 0
2, 42496, Note_on_c, 1, 63, 89
2, 42560, Note_off_c, 1, 63, 0
2, 42624, Note_on_c, 1, 71, 118
2, 42688, Note_off_c, 1, 71, 0
2, 42752, Note_on_c, 1, 67, 92
2, 42780, Note_off_c, 1, 67, 0
2, 42784, Note_on_c, 1, 69, 92
2, 42809, Note_off_c, 1, 69, 0
2, 42816, Note_on_c, 1, 67, 92
2, 42841, Note_off_c, 1, 67, 0
2, 42847, Note_on_c, 1, 69, 92
2, 42871, Note_off_c, 1, 69, 0
2, 42880, Note_on_c, 1, 66, 88
2, 42944, Note_on_c, 1, 64, 84
2, 42945, Note_off_c, 1, 66, 0
2, 43004, Note_off_c, 1, 64, 0
2, 43008, Note_on_c, 1, 64, 92
2, 43264, Note_off_c, 1, 64, 0
2, 43328, Note_on_c, 1, 71, 88
2, 43392, Note_on_c, 1, 69, 82
2, 43393, Note_off_c, 1, 71, 0
2, 43456, Note_on_c, 1, 71, 106
2, 43457, Note_off_c, 1, 69, 0
2, 43516, Note_off_c, 1, 71, 0
2, 43520, Note_on_c, 1, 76, 112
2, 43584, Note_off_c, 1, 76, 0
2, 43584, Note_on_c, 1, 75, 95
2, 43648, Note_off_c, 1, 75, 0
2, 43648, Note_on_c, 1, 76, 105
2, 43840, Note_off_c, 1, 76, 0
2, 43840, Note_on_c, 1, 71, 89
2, 43904, Note_on_c, 1, 69, 78
2, 43905, Note_off_c, 1, 71, 0
2, 43968, Note_on_c, 1, 71, 102
2, 43969, Note_off_c, 1, 69, 0
2, 44028, Note_off_c, 1, 71, 0
2, 44032, Note_on_c, 1, 79, 119
2, 44160, Note_on_c, 1, 78, 117
2, 44162, Note_off_c, 1, 79, 0
2, 44342, Note_off_c, 1, 78, 0
2, 44352, Note_on_c, 1, 71, 85
2, 44416, Note_on_c, 1, 69, 72
2, 44417, Note_off_c, 1, 71, 0
2, 44480, Note_on_c, 1, 71, 102
2, 44481, Note_off_c, 1, 69, 0
2, 44540, Note_off_c, 1, 71, 0
2, 44544, Note_on_c, 1, 78, 120
2, 44608, Note_off_c, 1, 78, 0
2, 44608, Note_on_c, 1, 76, 97
2, 44672, Note_off_c, 1, 76, 0
2, 44672, Note_on_c, 1, 78, 101
2, 44864, Note_off_c, 1, 78, 0
2, 44864, Note_on_c, 1, 71, 83
2, 44928, Note_on_c, 1, 69, 76
2, 44929, Note_off_c, 1, 71, 0
2, 44992, Note_on_c, 1, 71, 102
2, 44993, Note_off_c, 1, 69, 0
2, 45052, Note_off_c, 1, 71, 0
2, 45056, Note_on_c, 1, 81, 120
2, 45184, Note_off_c, 1, 81, 0
2, 45184, Note_on_c, 1, 79, 95
2, 45376, Note_off_c, 1, 79, 0
2, 45376, Note_on_c, 1, 76, 90
2, 45440, Note_on_c, 1, 75, 81
2, 45441, Note_off_c, 1, 76, 0
2, 45504, Note_on_c, 1, 76, 101
2, 45505, Note_off_c, 1, 75, 0
2, 45564, Note_off_c, 1, 76, 0
2, 45568, Note_on_c, 1, 78, 103
2, 45600, Note_off_c, 1, 78, 0
2, 45632, Note_on_c, 1, 76, 92
2, 45696, Note_on_c, 1, 75, 86
2, 45697, Note_off_c, 1, 76, 0
2, 45760, Note_on_c, 1, 76, 100
2, 45761, Note_off_c, 1, 75, 0
2, 45820, Note_off_c, 1, 76, 0
2, 45824, Note_on_c, 1, 80, 107
2, 45856, Note_off_c, 1, 80, 0
2, 45888, Note_on_c, 1, 76, 88
2, 45952, Note_on_c, 1, 75, 85
2, 45953, Note_off_c, 1, 76, 0
2, 46016, Note_on_c, 1, 76, 99
2, 46017, Note_off_c, 1, 75, 0
2, 46076, Note_off_c, 1, 76, 0
2, 46080, Note_on_c, 1, 81, 109
2, 46112, Note_off_c, 1, 81, 0
2, 46144, Note_on_c, 1, 76, 88
2, 46208, Note_on_c, 1, 75, 89
2, 46209, Note_off_c, 1, 76, 0
2, 46272, Note_on_c, 1, 76, 106
2, 46273, Note_off_c, 1, 75, 0
2, 46332, Note_off_c, 1, 76, 0
2, 46336, Note_on_c, 1, 83, 118
2, 46368, Note_off_c, 1, 83, 0
2, 46400, Note_on_c, 1, 76, 85
2, 46464, Note_on_c, 1, 75, 82
2, 46465, Note_off_c, 1, 76, 0
2, 46528, Note_on_c, 1, 76, 104
2, 46529, Note_off_c, 1, 75, 0
2, 46588, Note_off_c, 1, 76, 0
2, 46592, Note_on_c, 1, 84, 119
2, 46624, Note_off_c, 1, 84, 0
2, 46656, Note_on_c, 1, 69, 75
2, 46720, Note_on_c, 1, 68, 72
2, 46721, Note_off_c, 1, 69, 0
2, 46784, Note_on_c, 1, 69, 106
2, 46785, Note_off_c, 1, 68, 0
2, 46844, Note_off_c, 1, 69, 0
2, 46848, Note_on_c, 1, 73, 110
2, 46880, Note_off_c, 1, 73, 0
2, 46912, Note_on_c, 1, 69, 92
2, 46976, Note_on_c, 1, 68, 85
2, 46977, Note_off_c, 1, 69, 0
2, 47040, Note_on_c, 1, 69, 98
2, 47041, Note_off_c, 1, 68, 0
2, 47100, Note_off_c, 1, 69, 0
2, 47104, Note_on_c, 1, 74, 109
2, 47136, Note_off_c, 1, 74, 0
2, 47168, Note_on_c, 1, 69, 90
2, 47232, Note_on_c, 1, 68, 84
2, 47233, Note_off_c, 1, 69, 0
2, 47296, Note_on_c, 1, 69, 98
2, 47297, Note_off_c, 1, 68, 0
2, 47356, Note_off_c, 1, 69, 0
2, 47360, Note_on_c, 1, 76, 112
2, 47392, Note_off_c, 1, 76, 0
2, 47424, Note_on_c, 1, 69, 83
2, 47488, Note_on_c, 1, 68, 78
2, 47489, Note_off_c, 1, 69, 0
2, 47552, Note_on_c, 1, 69, 100
2, 47553, Note_off_c, 1, 68, 0
2, 47612, Note_off_c, 1, 69, 0
2, 47616, Note_on_c, 1, 77, 114
2, 47648, Note_off_c, 1, 77, 0
2, 47680, Note_on_c, 1, 62, 74
2, 47744, Note_on_c, 1, 61, 67
2, 47745, Note_off_c, 1, 62, 0
2, 47808, Note_on_c, 1, 62, 99
2, 47809, Note_off_c, 1, 61, 0
2, 47868, Note_off_c, 1, 62, 0
2, 47872, Note_on_c, 1, 66, 111
2, 47904, Note_off_c, 1, 66, 0
2, 47936, Note_on_c, 1, 62, 88
2, 48000, Note_on_c, 1, 61, 82
2, 48001, Note_off_c, 1, 62, 0
2, 48064, Note_on_c, 1, 62, 105
2, 48065, Note_off_c, 1, 61, 0
2, 48124, Note_off_c, 1, 62, 0
2, 48128, Note_on_c, 1, 67, 111
2, 48160, Note_off_c, 1, 67, 0
2, 48192, Note_on_c, 1, 62, 83
2, 48256, Note_on_c, 1, 61, 81
2, 48257, Note_off_c, 1, 62, 0
2, 48320, Note_on_c, 1, 62, 101
2, 48321, Note_off_c, 1, 61, 0
2, 48380, Note_off_c, 1, 62, 0
2, 48384, Note_on_c, 1, 69, 117
2, 48416, Note_off_c, 1, 69, 0
2, 48448, Note_on_c, 1, 62, 80
2, 48512, Note_on_c, 1, 61, 74
2, 48513, Note_off_c, 1, 62, 0
2, 48576, Note_on_c, 1, 62, 103
2, 48577, Note_off_c, 1, 61, 0
2, 48636, Note_off_c, 1, 62, 0
2, 48640, Note_on_c, 1, 71, 121
2, 48672, Note_off_c, 1, 71, 0
2, 48704, Note_on_c, 1, 67, 90
2, 48768, Note_on_c, 1, 66, 84
2, 48769, Note_off_c, 1, 67, 0
2, 48832, Note_on_c, 1, 67, 103
2, 48833, Note_off_c, 1, 66, 0
2, 48892, Note_off_c, 1, 67, 0
2, 48896, Note_on_c, 1, 71, 108
2, 48928, Note_off_c, 1, 71, 0
2, 48960, Note_on_c, 1, 67, 88
2, 49024, Note_on_c, 1, 66, 82
2, 49025, Note_off_c, 1, 67, 0
2, 49088, Note_on_c, 1, 67, 102
2, 49089, Note_off_c, 1, 66, 0
2, 49148, Note_off_c, 1, 67, 0
2, 49152, Note_on_c, 1, 72, 110
2, 49184, Note_off_c, 1, 72, 0
2, 49216, Note_on_c, 1, 67, 82
2, 49280, Note_on_c, 1, 66, 72
2, 49281, Note_off_c, 1, 67, 0
2, 49344, Note_on_c, 1, 67, 100
2, 49345, Note_off_c, 1, 66, 0
2, 49404, Note_off_c, 1, 67, 0
2, 49408, Note_on_c, 1, 74, 119
2, 49440, Note_off_c, 1, 74, 0
2, 49472, Note_on_c, 1, 67, 81
2, 49536, Note_on_c, 1, 66, 72
2, 49537, Note_off_c, 1, 67, 0
2, 49600, Note_on_c, 1, 67, 100
2, 49601, Note_off_c, 1, 66, 0
2, 49660, Note_off_c, 1, 67, 0
2, 49664, Note_on_c, 1, 76, 115
2, 49696, Note_off_c, 1, 76, 0
2, 49728, Note_on_c, 1, 72, 88
2, 49792, Note_on_c, 1, 71, 82
2, 49793, Note_off_c, 1, 72, 0
2, 49856, Note_on_c, 1, 72, 100
2, 49857, Note_off_c, 1, 71, 0
2, 49916, Note_off_c, 1, 72, 0
2, 49920, Note_on_c, 1, 76, 106
2, 49952, Note_off_c, 1, 76, 0
2, 49984, Note_on_c, 1, 72, 91
2, 50048, Note_on_c, 1, 71, 88
2, 50049, Note_off_c, 1, 72, 0
2, 50112, Note_on_c, 1, 72, 102
2, 50113, Note_off_c, 1, 71, 0
2, 50172, Note_off_c, 1, 72, 0
2, 50176, Note_on_c, 1, 77, 112
2, 50208, Note_off_c, 1, 77, 0
2, 50240, Note_on_c, 1, 72, 93
2, 50304, Note_on_c, 1, 71, 89
2, 50305, Note_off_c, 1, 72, 0
2, 50368, Note_on_c, 1, 72, 101
2, 50369, Note_off_c, 1, 71, 0
2, 50428, Note_off_c, 1, 72, 0
2, 50432, Note_on_c, 1, 79, 115
2, 50464, Note_off_c, 1, 79, 0
2, 50496, Note_on_c, 1, 72, 87
2, 50560, Note_on_c, 1, 71, 82
2, 50561, Note_off_c, 1, 72, 0
2, 50624, Note_on_c, 1, 72, 103
2, 50625, Note_off_c, 1, 71, 0
2, 50684, Note_off_c, 1, 72, 0
2, 50688, Note_on_c, 1, 81, 122
2, 50752, Note_on_c, 1, 82, 127
2, 50753, Note_off_c, 1, 81, 0
2, 50816, Note_on_c, 1, 81, 95
2, 50817, Note_off_c, 1, 82, 0
2, 50876, Note_off_c, 1, 81, 0
2, 50880, Note_on_c, 1, 79, 91
2, 50944, Note_off_c, 1, 79, 0
2, 50944, Note_on_c, 1, 77, 92
2, 51008, Note_off_c, 1, 77, 0
2, 51008, Note_on_c, 1, 76, 89
2, 51072, Note_off_c, 1, 76, 0
2, 51072, Note_on_c, 1, 74, 92
2, 51136, Note_off_c, 1, 74, 0
2, 51136, Note_on_c, 1, 72, 93
2, 51200, Note_off_c, 1, 72, 0
2, 51200, Note_on_c, 1, 70, 91
2, 51264, Note_on_c, 1, 69, 87
2, 51265, Note_off_c, 1, 70, 0
2, 51328, Note_on_c, 1, 70, 95
2, 51329, Note_off_c, 1, 69, 0
2, 51388, Note_off_c, 1, 70, 0
2, 51392, Note_on_c, 1, 81, 123
2, 51456, Note_off_c, 1, 81, 0
2, 51456, Note_on_c, 1, 79, 96
2, 51520, Note_off_c, 1, 79, 0
2, 51520, Note_on_c, 1, 77, 91
2, 51584, Note_off_c, 1, 77, 0
2, 51584, Note_on_c, 1, 76, 102
2, 51648, Note_off_c, 1, 76, 0
2, 51648, Note_on_c, 1, 74, 90
2, 51712, Note_off_c, 1, 74, 0
2, 51712, Note_on_c, 1, 73, 89
2, 51776, Note_on_c, 1, 74, 94
2, 51777, Note_off_c, 1, 73, 0
2, 51840, Note_on_c, 1, 73, 95
2, 51841, Note_off_c, 1, 74, 0
2, 51900, Note_off_c, 1, 73, 0
2, 51904, Note_on_c, 1, 71, 91
2, 51968, Note_off_c, 1, 71, 0
2, 51968, Note_on_c, 1, 69, 87
2, 52032, Note_off_c, 1, 69, 0
2, 52032, Note_on_c, 1, 67, 90
2, 52096, Note_off_c, 1, 67, 0
2, 52096, Note_on_c, 1, 65, 94
2, 52160, Note_off_c, 1, 65, 0
2, 52160, Note_on_c, 1, 64, 96
2, 52224, Note_off_c, 1, 64, 0
2, 52224, Note_on_c, 1, 65, 96
2, 52288, Note_on_c, 1, 69, 106
2, 52289, Note_off_c, 1, 65, 0
2, 52348, Note_off_c, 1, 69, 0
2, 52352, Note_on_c, 1, 74, 107
2, 52416, Note_off_c, 1, 74, 0
2, 52416, Note_on_c, 1, 77, 112
2, 52480, Note_off_c, 1, 77, 0
2, 52480, Note_on_c, 1, 81, 109
2, 52800, Note_off_c, 1, 81, 0
2, 52800, Note_on_c, 1, 79, 89
2, 52864, Note_on_c, 1, 77, 86
2, 52865, Note_off_c, 1, 79, 0
2, 52928, Note_on_c, 1, 81, 107
2, 52929, Note_off_c, 1, 77, 0
2, 52988, Note_off_c, 1, 81, 0
2, 52992, Note_on_c, 1, 79, 91
2, 53056, Note_on_c, 1, 77, 85
2, 53057, Note_off_c, 1, 79, 0
2, 53120, Note_on_c, 1, 76, 89
2, 53121, Note_off_c, 1, 77, 0
2, 53184, Note_on_c, 1, 79, 95
2, 53185, Note_off_c, 1, 76, 0
2, 53244, Note_off_c, 1, 79, 0
2, 53248, Note_on_c, 1, 77, 88
2, 53312, Note_on_c, 1, 76, 82
2, 53313, Note_off_c, 1, 77, 0
2, 53376, Note_on_c, 1, 74, 91
2, 53377, Note_off_c, 1, 76, 0
2, 53440, Note_on_c, 1, 77, 101
2, 53441, Note_off_c, 1, 74, 0
2, 53500, Note_off_c, 1, 77, 0
2, 53504, Note_on_c, 1, 76, 96
2, 53568, Note_on_c, 1, 74, 86
2, 53569, Note_off_c, 1, 76, 0
2, 53632, Note_on_c, 1, 73, 91
2, 53633, Note_off_c, 1, 74, 0
2, 53696, Note_on_c, 1, 76, 98
2, 53697, Note_off_c, 1, 73, 0
2, 53756, Note_off_c, 1, 76, 0
2, 53760, Note_on_c, 1, 74, 88
2, 54016, Note_off_c, 1, 74, 0
2, 54080, Note_on_c, 1, 74, 54
2, 54144, Note_on_c, 1, 73, 50
2, 54145, Note_off_c, 1, 74, 0
2, 54208, Note_on_c, 1, 74, 63
2, 54209, Note_off_c, 1, 73, 0
2, 54268, Note_off_c, 1, 74, 0
2, 54272, Note_on_c, 1, 76, 62
2, 54336, Note_off_c, 1, 76, 0
2, 54336, Note_on_c, 1, 74, 60
2, 54400, Note_on_c, 1, 73, 60
2, 54401, Note_off_c, 1, 74, 0
2, 54464, Note_on_c, 1, 74, 63
2, 54465, Note_off_c, 1, 73, 0
2, 54524, Note_off_c, 1, 74, 0
2, 54528, Note_on_c, 1, 77, 68
2, 54592, Note_off_c, 1, 77, 0
2, 54592, Note_on_c, 1, 74, 56
2, 54656, Note_on_c, 1, 73, 47
2, 54657, Note_off_c, 1, 74, 0
2, 54720, Note_on_c, 1, 74, 61
2, 54721, Note_off_c, 1, 73, 0
2, 54780, Note_off_c, 1, 74, 0
2, 54784, Note_on_c, 1, 79, 66
2, 54848, Note_off_c, 1, 79, 0
2, 54848, Note_on_c, 1, 74, 49
2, 54912, Note_on_c, 1, 73, 46
2, 54913, Note_off_c, 1, 74, 0
2, 54976, Note_on_c, 1, 74, 64
2, 54977, Note_off_c, 1, 73, 0
2, 55036, Note_off_c, 1, 74, 0
2, 55040, Note_on_c, 1, 81, 67
2, 55104, Note_off_c, 1, 81, 0
2, 55104, Note_on_c, 1, 74, 55
2, 55168, Note_on_c, 1, 73, 52
2, 55169, Note_off_c, 1, 74, 0
2, 55232, Note_on_c, 1, 74, 60
2, 55233, Note_off_c, 1, 73, 0
2, 55292, Note_off_c, 1, 74, 0
2, 55296, Note_on_c, 1, 82, 71
2, 55872, Note_off_c, 1, 82, 0
2, 55872, Note_on_c, 1, 72, 52
2, 55936, Note_on_c, 1, 71, 45
2, 55937, Note_off_c, 1, 72, 0
2, 56000, Note_on_c, 1, 72, 66
2, 56001, Note_off_c, 1, 71, 0
2, 56060, Note_off_c, 1, 72, 0
2, 56064, Note_on_c, 1, 76, 63
2, 56128, Note_off_c, 1, 76, 0
2, 56128, Note_on_c, 1, 72, 55
2, 56192, Note_on_c, 1, 71, 50
2, 56193, Note_off_c, 1, 72, 0
2, 56256, Note_on_c, 1, 72, 66
2, 56257, Note_off_c, 1, 71, 0
2, 56316, Note_off_c, 1, 72, 0
2, 56320, Note_on_c, 1, 77, 70
2, 56384, Note_off_c, 1, 77, 0
2, 56384, Note_on_c, 1, 72, 54
2, 56448, Note_on_c, 1, 71, 54
2, 56449, Note_off_c, 1, 72, 0
2, 56512, Note_on_c, 1, 72, 65
2, 56513, Note_off_c, 1, 71, 0
2, 56572, Note_off_c, 1, 72, 0
2, 56576, Note_on_c, 1, 79, 70
2, 56640, Note_off_c, 1, 79, 0
2, 56640, Note_on_c, 1, 72, 55
2, 56704, Note_on_c, 1, 71, 53
2, 56705, Note_off_c, 1, 72, 0
2, 56768, Note_on_c, 1, 72, 63
2, 56769, Note_off_c, 1, 71, 0
2, 56828, Note_off_c, 1, 72, 0
2, 56832, Note_on_c, 1, 81, 73
2, 57408, Note_off_c, 1, 81, 0
2, 57408, Note_on_c, 1, 74, 51
2, 57472, Note_on_c, 1, 76, 53
2, 57473, Note_off_c, 1, 74, 0
2, 57536, Note_on_c, 1, 78, 65
2, 57537, Note_off_c, 1, 76, 0
2, 57600, Note_on_c, 1, 79, 70
2, 57601, Note_off_c, 1, 78, 0
2, 57664, Note_on_c, 1, 81, 68
2, 57665, Note_off_c, 1, 79, 0
2, 57728, Note_on_c, 1, 82, 73
2, 57729, Note_off_c, 1, 81, 0
2, 57792, Note_on_c, 1, 84, 69
2, 57793, Note_off_c, 1, 82, 0
2, 57856, Note_on_c, 1, 86, 71
2, 57857, Note_off_c, 1, 84, 0
2, 57920, Note_on_c, 1, 84, 58
2, 57921, Note_off_c, 1, 86, 0
2, 57984, Note_on_c, 1, 82, 53
2, 57985, Note_off_c, 1, 84, 0
2, 58048, Note_on_c, 1, 81, 56
2, 58049, Note_off_c, 1, 82, 0
2, 58112, Note_on_c, 1, 79, 52
2, 58113, Note_off_c, 1, 81, 0
2, 58176, Note_on_c, 1, 78, 54
2, 58177, Note_off_c, 1, 79, 0
2, 58240, Note_on_c, 1, 76, 48
2, 58241, Note_off_c, 1, 78, 0
2, 58304, Note_on_c, 1, 74, 56
2, 58305, Note_off_c, 1, 76, 0
2, 58364, Note_off_c, 1, 74, 0
2, 58368, Note_on_c, 1, 79, 66
2, 58944, Note_off_c, 1, 79, 0
2, 58944, Note_on_c, 1, 76, 59
2, 59008, Note_on_c, 1, 77, 65
2, 59009, Note_off_c, 1, 76, 0
2, 59072, Note_on_c, 1, 79, 65
2, 59073, Note_off_c, 1, 77, 0
2, 59136, Note_on_c, 1, 81, 69
2, 59137, Note_off_c, 1, 79, 0
2, 59200, Note_on_c, 1, 83, 65
2, 59201, Note_off_c, 1, 81, 0
2, 59264, Note_on_c, 1, 85, 71
2, 59265, Note_off_c, 1, 83, 0
2, 59328, Note_on_c, 1, 86, 63
2, 59329, Note_off_c, 1, 85, 0
2, 59392, Note_on_c, 1, 88, 67
2, 59393, Note_off_c, 1, 86, 0
2, 59456, Note_on_c, 1, 86, 54
2, 59457, Note_off_c, 1, 88, 0
2, 59520, Note_on_c, 1, 85, 52
2, 59521, Note_off_c, 1, 86, 0
2, 59584, Note_on_c, 1, 83, 52
2, 59585, Note_off_c, 1, 85, 0
2, 59648, Note_on_c, 1, 81, 49
2, 59649, Note_off_c, 1, 83, 0
2, 59712, Note_on_c, 1, 79, 60
2, 59713, Note_off_c, 1, 81, 0
2, 59776, Note_on_c, 1, 77, 53
2, 59777, Note_off_c, 1, 79, 0
2, 59840, Note_on_c, 1, 76, 58
2, 59841, Note_off_c, 1, 77, 0
2, 59900, Note_off_c, 1, 76, 0
2, 59904, Note_on_c, 1, 77, 58
2, 59968, Note_off_c, 1, 77, 0
2, 59968, Note_on_c, 1, 86, 69
2, 60032, Note_off_c, 1, 86, 0
2, 60032, Note_on_c, 1, 77, 49
2, 60096, Note_on_c, 1, 76, 44
2, 60097, Note_off_c, 1, 77, 0
2, 60160, Note_on_c, 1, 77, 61
2, 60161, Note_off_c, 1, 76, 0
2, 60220, Note_off_c, 1, 77, 0
2, 60224, Note_on_c, 1, 81, 73
2, 60288, Note_off_c, 1, 81, 0
2, 60288, Note_on_c, 1, 86, 69
2, 60352, Note_off_c, 1, 86, 0
2, 60352, Note_on_c, 1, 84, 58
2, 60416, Note_off_c, 1, 84, 0
2, 60416, Note_on_c, 1, 83, 59
2, 60480, Note_off_c, 1, 83, 0
2, 60480, Note_on_c, 1, 77, 52
2, 60544, Note_off_c, 1, 77, 0
2, 60544, Note_on_c, 1, 84, 75
2, 60608, Note_off_c, 1, 84, 0
2, 60608, Note_on_c, 1, 77, 54
2, 60672, Note_off_c, 1, 77, 0
2, 60672, Note_on_c, 1, 86, 73
2, 60736, Note_off_c, 1, 86, 0
2, 60736, Note_on_c, 1, 77, 53
2, 60800, Note_off_c, 1, 77, 0
2, 60800, Note_on_c, 1, 83, 70
2, 60864, Note_off_c, 1, 83, 0
2, 60864, Note_on_c, 1, 77, 53
2, 60928, Note_off_c, 1, 77, 0
2, 60928, Note_on_c, 1, 76, 52
2, 60992, Note_off_c, 1, 76, 0
2, 60992, Note_on_c, 1, 84, 71
2, 61056, Note_off_c, 1, 84, 0
2, 61056, Note_on_c, 1, 76, 49
2, 61120, Note_on_c, 1, 74, 48
2, 61121, Note_off_c, 1, 76, 0
2, 61184, Note_on_c, 1, 76, 67
2, 61185, Note_off_c, 1, 74, 0
2, 61244, Note_off_c, 1, 76, 0
2, 61248, Note_on_c, 1, 79, 67
2, 61312, Note_off_c, 1, 79, 0
2, 61312, Note_on_c, 1, 84, 72
2, 61376, Note_off_c, 1, 84, 0
2, 61376, Note_on_c, 1, 83, 62
2, 61440, Note_off_c, 1, 83, 0
2, 61440, Note_on_c, 1, 81, 56
2, 61504, Note_off_c, 1, 81, 0
2, 61504, Note_on_c, 1, 76, 52
2, 61568, Note_off_c, 1, 76, 0
2, 61568, Note_on_c, 1, 83, 68
2, 61632, Note_off_c, 1, 83, 0
2, 61632, Note_on_c, 1, 76, 52
2, 61696, Note_off_c, 1, 76, 0
2, 61696, Note_on_c, 1, 84, 72
2, 61760, Note_off_c, 1, 84, 0
2, 61760, Note_on_c, 1, 76, 52
2, 61824, Note_off_c, 1, 76, 0
2, 61824, Note_on_c, 1, 81, 64
2, 61888, Note_off_c, 1, 81, 0
2, 61888, Note_on_c, 1, 76, 50
2, 61952, Note_off_c, 1, 76, 0
2, 61952, Note_on_c, 1, 74, 55
2, 62016, Note_off_c, 1, 74, 0
2, 62016, Note_on_c, 1, 83, 71
2, 62080, Note_off_c, 1, 83, 0
2, 62080, Note_on_c, 1, 74, 50
2, 62144, Note_on_c, 1, 72, 44
2, 62145, Note_off_c, 1, 74, 0
2, 62208, Note_on_c, 1, 74, 61
2, 62209, Note_off_c, 1, 72, 0
2, 62268, Note_off_c, 1, 74, 0
2, 62272, Note_on_c, 1, 77, 71
2, 62336, Note_off_c, 1, 77, 0
2, 62336, Note_on_c, 1, 83, 71
2, 62400, Note_off_c, 1, 83, 0
2, 62400, Note_on_c, 1, 81, 60
2, 62464, Note_off_c, 1, 81, 0
2, 62464, Note_on_c, 1, 80, 54
2, 62528, Note_on_c, 1, 74, 46
2, 62529, Note_off_c, 1, 80, 0
2, 62588, Note_off_c, 1, 74, 0
2, 62592, Note_on_c, 1, 81, 70
2, 62656, Note_off_c, 1, 81, 0
2, 62656, Note_on_c, 1, 74, 53
2, 62720, Note_off_c, 1, 74, 0
2, 62720, Note_on_c, 1, 83, 76
2, 62784, Note_off_c, 1, 83, 0
2, 62784, Note_on_c, 1, 74, 48
2, 62848, Note_off_c, 1, 74, 0
2, 62848, Note_on_c, 1, 80, 74
2, 62912, Note_on_c, 1, 74, 64
2, 62913, Note_off_c, 1, 80, 0
2, 62972, Note_off_c, 1, 74, 0
2, 62976, Note_on_c, 1, 72, 92
2, 63040, Note_off_c, 1, 72, 0
2, 63040, Note_on_c, 1, 81, 120
2, 63104, Note_off_c, 1, 81, 0
2, 63104, Note_on_c, 1, 72, 75
2, 63168, Note_on_c, 1, 71, 71
2, 63169, Note_off_c, 1, 72, 0
2, 63232, Note_on_c, 1, 72, 101
2, 63233, Note_off_c, 1, 71, 0
2, 63292, Note_off_c, 1, 72, 0
2, 63296, Note_on_c, 1, 76, 108
2, 63360, Note_off_c, 1, 76, 0
2, 63360, Note_on_c, 1, 81, 113
2, 63424, Note_off_c, 1, 81, 0
2, 63424, Note_on_c, 1, 76, 89
2, 63488, Note_off_c, 1, 76, 0
2, 63488, Note_on_c, 1, 77, 97
2, 63552, Note_off_c, 1, 77, 0
2, 63552, Note_on_c, 1, 81, 106
2, 63616, Note_off_c, 1, 81, 0
2, 63616, Note_on_c, 1, 74, 86
2, 63680, Note_on_c, 1, 72, 81
2, 63681, Note_off_c, 1, 74, 0
2, 63744, Note_on_c, 1, 74, 106
2, 63745, Note_off_c, 1, 72, 0
2, 63804, Note_off_c, 1, 74, 0
2, 63808, Note_on_c, 1, 77, 107
2, 63872, Note_off_c, 1, 77, 0
2, 63872, Note_on_c, 1, 81, 108
2, 63936, Note_off_c, 1, 81, 0
2, 63936, Note_on_c, 1, 71, 78
2, 64000, Note_off_c, 1, 71, 0
2, 64000, Note_on_c, 1, 72, 95
2, 64128, Note_off_c, 1, 72, 0
2, 64128, Note_on_c, 1, 81, 120
2, 64256, Note_off_c, 1, 81, 0
2, 64256, Note_on_c, 1, 71, 74
2, 64384, Note_off_c, 1, 71, 0
2, 64384, Note_on_c, 1, 80, 117
2, 64512, Note_off_c, 1, 80, 0
2, 64512, Note_on_c, 1, 81, 120
2, 64768, Note_off_c, 1, 81, 0
2, 64832, Note_on_c, 1, 57, 87
2, 64896, Note_on_c, 1, 56, 84
2, 64897, Note_off_c, 1, 57, 0
2, 64960, Note_on_c, 1, 57, 100
2, 64961, Note_off_c, 1, 56, 0
2, 65020, Note_off_c, 1, 57, 0
2, 65024, Note_on_c, 1, 60, 108
2, 65088, Note_off_c, 1, 60, 0
2, 65088, Note_on_c, 1, 57, 92
2, 65152, Note_on_c, 1, 56, 85
2, 65153, Note_off_c, 1, 57, 0
2, 65216, Note_on_c, 1, 57, 102
2, 65217, Note_off_c, 1, 56, 0
2, 65276, Note_off_c, 1, 57, 0
2, 65280, Note_on_c, 1, 61, 105
2, 65344, Note_off_c, 1, 61, 0
2, 65344, Note_on_c, 1, 57, 94
2, 65408, Note_on_c, 1, 56, 93
2, 65409, Note_off_c, 1, 57, 0
2, 65472, Note_on_c, 1, 57, 103
2, 65473, Note_off_c, 1, 56, 0
2, 65532, Note_off_c, 1, 57, 0
2, 65536, Note_on_c, 1, 62, 108
2, 65600, Note_off_c, 1, 62, 0
2, 65600, Note_on_c, 1, 57, 92
2, 65664, Note_on_c, 1, 56, 94
2, 65665, Note_off_c, 1, 57, 0
2, 65728, Note_on_c, 1, 57, 99
2, 65729, Note_off_c, 1, 56, 0
2, 65788, Note_off_c, 1, 57, 0
2, 65792, Note_on_c, 1, 64, 116
2, 65856, Note_off_c, 1, 64, 0
2, 65856, Note_on_c, 1, 57, 91
2, 65920, Note_on_c, 1, 56, 85
2, 65921, Note_off_c, 1, 57, 0
2, 65984, Note_on_c, 1, 57, 100
2, 65985, Note_off_c, 1, 56, 0
2, 66044, Note_off_c, 1, 57, 0
2, 66048, Note_on_c, 1, 65, 115
2, 66112, Note_off_c, 1, 65, 0
2, 66112, Note_on_c, 1, 62, 91
2, 66176, Note_on_c, 1, 61, 87
2, 66177, Note_off_c, 1, 62, 0
2, 66240, Note_on_c, 1, 62, 103
2, 66241, Note_off_c, 1, 61, 0
2, 66300, Note_off_c, 1, 62, 0
2, 66304, Note_on_c, 1, 66, 105
2, 66368, Note_off_c, 1, 66, 0
2, 66368, Note_on_c, 1, 62, 94
2, 66432, Note_on_c, 1, 61, 88
2, 66433, Note_off_c, 1, 62, 0
2, 66496, Note_on_c, 1, 62, 101
2, 66497, Note_off_c, 1, 61, 0
2, 66556, Note_off_c, 1, 62, 0
2, 66560, Note_on_c, 1, 67, 110
2, 66624, Note_off_c, 1, 67, 0
2, 66624, Note_on_c, 1, 62, 84
2, 66688, Note_on_c, 1, 61, 77
2, 66689, Note_off_c, 1, 62, 0
2, 66752, Note_on_c, 1, 62, 102
2, 66753, Note_off_c, 1, 61, 0
2, 66812, Note_off_c, 1, 62, 0
2, 66816, Note_on_c, 1, 69, 115
2, 66880, Note_off_c, 1, 69, 0
2, 66880, Note_on_c, 1, 62, 86
2, 66944, Note_on_c, 1, 61, 80
2, 66945, Note_off_c, 1, 62, 0
2, 67008, Note_on_c, 1, 62, 101
2, 67009, Note_off_c, 1, 61, 0
2, 67068, Note_off_c, 1, 62, 0
2, 67072, Note_on_c, 1, 70, 114
2, 67136, Note_off_c, 1, 70, 0
2, 67136, Note_on_c, 1, 67, 92
2, 67200, Note_on_c, 1, 66, 91
2, 67201, Note_off_c, 1, 67, 0
2, 67264, Note_on_c, 1, 67, 103
2, 67265, Note_off_c, 1, 66, 0
2, 67324, Note_off_c, 1, 67, 0
2, 67328, Note_on_c, 1, 71, 112
2, 67392, Note_off_c, 1, 71, 0
2, 67392, Note_on_c, 1, 67, 87
2, 67456, Note_on_c, 1, 66, 81
2, 67457, Note_off_c, 1, 67, 0
2, 67520, Note_on_c, 1, 67, 100
2, 67521, Note_off_c, 1, 66, 0
2, 67580, Note_off_c, 1, 67, 0
2, 67584, Note_on_c, 1, 72, 116
2, 67648, Note_off_c, 1, 72, 0
2, 67648, Note_on_c, 1, 67, 86
2, 67712, Note_on_c, 1, 66, 83
2, 67713, Note_off_c, 1, 67, 0
2, 67776, Note_on_c, 1, 67, 103
2, 67777, Note_off_c, 1, 66, 0
2, 67836, Note_off_c, 1, 67, 0
2, 67840, Note_on_c, 1, 74, 117
2, 67904, Note_off_c, 1, 74, 0
2, 67904, Note_on_c, 1, 67, 83
2, 67968, Note_on_c, 1, 66, 78
2, 67969, Note_off_c, 1, 67, 0
2, 68032, Note_on_c, 1, 67, 103
2, 68033, Note_off_c, 1, 66, 0
2, 68092, Note_off_c, 1, 67, 0
2, 68096, Note_on_c, 1, 75, 116
2, 68160, Note_off_c, 1, 75, 0
2, 68160, Note_on_c, 1, 72, 91
2, 68224, Note_on_c, 1, 71, 88
2, 68225, Note_off_c, 1, 72, 0
2, 68288, Note_on_c, 1, 72, 103
2, 68289, Note_off_c, 1, 71, 0
2, 68348, Note_off_c, 1, 72, 0
2, 68352, Note_on_c, 1, 76, 106
2, 68416, Note_off_c, 1, 76, 0
2, 68416, Note_on_c, 1, 72, 92
2, 68480, Note_on_c, 1, 71, 91
2, 68481, Note_off_c, 1, 72, 0
2, 68544, Note_on_c, 1, 72, 103
2, 68545, Note_off_c, 1, 71, 0
2, 68604, Note_off_c, 1, 72, 0
2, 68608, Note_on_c, 1, 77, 116
2, 68672, Note_off_c, 1, 77, 0
2, 68672, Note_on_c, 1, 72, 87
2, 68736, Note_on_c, 1, 71, 82
2, 68737, Note_off_c, 1, 72, 0
2, 68800, Note_on_c, 1, 72, 101
2, 68801, Note_off_c, 1, 71, 0
2, 68860, Note_off_c, 1, 72, 0
2, 68864, Note_on_c, 1, 79, 119
2, 68928, Note_off_c, 1, 79, 0
2, 68928, Note_on_c, 1, 72, 84
2, 68992, Note_on_c, 1, 71, 74
2, 68993, Note_off_c, 1, 72, 0
2, 69056, Note_on_c, 1, 72, 103
2, 69057, Note_off_c, 1, 71, 0
2, 69116, Note_off_c, 1, 72, 0
2, 69120, Note_on_c, 1, 80, 114
2, 69152, Note_off_c, 1, 80, 0
2, 69152, Note_on_c, 1, 82, 108
2, 69184, Note_off_c, 1, 82, 0
2, 69184, Note_on_c, 1, 84, 103
2, 69305, Note_off_c, 1, 84, 0
2, 69312, Note_on_c, 1, 80, 90
2, 69376, Note_off_c, 1, 80, 0
2, 69376, Note_on_c, 1, 78, 94
2, 69408, Note_off_c, 1, 78, 0
2, 69408, Note_on_c, 1, 79, 102
2, 69440, Note_off_c, 1, 79, 0
2, 69440, Note_on_c, 1, 81, 105
2, 69561, Note_off_c, 1, 81, 0
2, 69568, Note_on_c, 1, 78, 90
2, 69632, Note_off_c, 1, 78, 0
2, 69632, Note_on_c, 1, 79, 104
2, 69696, Note_off_c, 1, 79, 0
2, 69696, Note_on_c, 1, 74, 89
2, 69760, Note_off_c, 1, 74, 0
2, 69760, Note_on_c, 1, 70, 89
2, 69824, Note_off_c, 1, 70, 0
2, 69824, Note_on_c, 1, 67, 89
2, 69888, Note_on_c, 1, 66, 84
2, 69889, Note_off_c, 1, 67, 0
2, 69952, Note_on_c, 1, 67, 103
2, 69953, Note_off_c, 1, 66, 0
2, 70012, Note_off_c, 1, 67, 0
2, 70016, Note_on_c, 1, 71, 106
2, 70080, Note_off_c, 1, 71, 0
2, 70080, Note_on_c, 1, 74, 104
2, 70144, Note_off_c, 1, 74, 0
2, 70144, Note_on_c, 1, 75, 101
2, 70176, Note_off_c, 1, 75, 0
2, 70176, Note_on_c, 1, 77, 104
2, 70208, Note_off_c, 1, 77, 0
2, 70208, Note_on_c, 1, 79, 108
2, 70329, Note_off_c, 1, 79, 0
2, 70336, Note_on_c, 1, 75, 90
2, 70400, Note_off_c, 1, 75, 0
2, 70400, Note_on_c, 1, 73, 92
2, 70432, Note_off_c, 1, 73, 0
2, 70432, Note_on_c, 1, 74, 102
2, 70464, Note_off_c, 1, 74, 0
2, 70464, Note_on_c, 1, 76, 105
2, 70585, Note_off_c, 1, 76, 0
2, 70592, Note_on_c, 1, 73, 93
2, 70656, Note_off_c, 1, 73, 0
2, 70656, Note_on_c, 1, 74, 97
2, 70720, Note_off_c, 1, 74, 0
2, 70720, Note_on_c, 1, 69, 86
2, 70784, Note_off_c, 1, 69, 0
2, 70784, Note_on_c, 1, 65, 84
2, 70848, Note_off_c, 1, 65, 0
2, 70848, Note_on_c, 1, 62, 90
2, 70912, Note_on_c, 1, 61, 86
2, 70913, Note_off_c, 1, 62, 0
2, 70976, Note_on_c, 1, 62, 100
2, 70977, Note_off_c, 1, 61, 0
2, 71036, Note_off_c, 1, 62, 0
2, 71040, Note_on_c, 1, 65, 107
2, 71104, Note_off_c, 1, 65, 0
2, 71104, Note_on_c, 1, 69, 108
2, 71168, Note_off_c, 1, 69, 0
2, 71168, Note_on_c, 1, 70, 102
2, 71200, Note_off_c, 1, 70, 0
2, 71200, Note_on_c, 1, 72, 107
2, 71232, Note_off_c, 1, 72, 0
2, 71232, Note_on_c, 1, 74, 99
2, 71353, Note_off_c, 1, 74, 0
2, 71360, Note_on_c, 1, 70, 87
2, 71424, Note_off_c, 1, 70, 0
2, 71424, Note_on_c, 1, 68, 92
2, 71456, Note_off_c, 1, 68, 0
2, 71456, Note_on_c, 1, 69, 106
2, 71488, Note_off_c, 1, 69, 0
2, 71488, Note_on_c, 1, 71, 100
2, 71609, Note_off_c, 1, 71, 0
2, 71616, Note_on_c, 1, 68, 92
2, 71680, Note_off_c, 1, 68, 0
2, 71680, Note_on_c, 1, 69, 102
2, 71744, Note_off_c, 1, 69, 0
2, 71744, Note_on_c, 1, 64, 85
2, 71808, Note_off_c, 1, 64, 0
2, 71808, Note_on_c, 1, 66, 105
2, 71872, Note_off_c, 1, 66, 0
2, 71872, Note_on_c, 1, 68, 105
2, 71936, Note_off_c, 1, 68, 0
2, 71936, Note_on_c, 1, 69, 106
2, 72000, Note_off_c, 1, 69, 0
2, 72000, Note_on_c, 1, 64, 87
2, 72064, Note_off_c, 1, 64, 0
2, 72064, Note_on_c, 1, 71, 120
2, 72128, Note_off_c, 1, 71, 0
2, 72128, Note_on_c, 1, 64, 87
2, 72192, Note_off_c, 1, 64, 0
2, 72192, Note_on_c, 1, 72, 125
2, 72256, Note_off_c, 1, 72, 0
2, 72256, Note_on_c, 1, 68, 94
2, 72320, Note_off_c, 1, 68, 0
2, 72320, Note_on_c, 1, 69, 110
2, 72384, Note_off_c, 1, 69, 0
2, 72384, Note_on_c, 1, 71, 115
2, 72448, Note_off_c, 1, 71, 0
2, 72448, Note_on_c, 1, 72, 114
2, 72512, Note_off_c, 1, 72, 0
2, 72512, Note_on_c, 1, 69, 99
2, 72576, Note_off_c, 1, 69, 0
2, 72576, Note_on_c, 1, 74, 124
2, 72640, Note_off_c, 1, 74, 0
2, 72640, Note_on_c, 1, 69, 99
2, 72704, Note_off_c, 1, 69, 0
2, 72704, Note_on_c, 1, 68, 96
2, 72768, Note_off_c, 1, 68, 0
2, 72768, Note_on_c, 1, 64, 89
2, 72832, Note_off_c, 1, 64, 0
2, 72832, Note_on_c, 1, 68, 103
2, 72896, Note_off_c, 1, 68, 0
2, 72896, Note_on_c, 1, 71, 107
2, 72960, Note_off_c, 1, 71, 0
2, 72960, Note_on_c, 1, 76, 109
2, 73280, Note_off_c, 1, 76, 0
2, 73280, Note_on_c, 1, 69, 79
2, 73344, Note_off_c, 1, 69, 0
2, 73344, Note_on_c, 1, 72, 104
2, 73408, Note_off_c, 1, 72, 0
2, 73408, Note_on_c, 1, 76, 115
2, 73472, Note_off_c, 1, 76, 0
2, 73472, Note_on_c, 1, 81, 112
2, 73792, Note_off_c, 1, 81, 0
2, 73792, Note_on_c, 1, 69, 71
2, 73856, Note_off_c, 1, 69, 0
2, 73856, Note_on_c, 1, 74, 106
2, 73920, Note_off_c, 1, 74, 0
2, 73920, Note_on_c, 1, 77, 108
2, 73984, Note_off_c, 1, 77, 0
2, 73984, Note_on_c, 1, 81, 105
2, 74368, Note_off_c, 1, 81, 0
2, 74368, Note_on_c, 1, 69, 67
2, 74496, Note_off_c, 1, 69, 0
2, 74496, Note_on_c, 1, 64, 77
2, 74624, Note_off_c, 1, 64, 0
2, 74624, Note_on_c, 1, 68, 101
2, 74752, Note_off_c, 1, 68, 0
2, 74752, Note_on_c, 1, 57, 88
2, 74880, Note_off_c, 1, 57, 0
2, 74880, Note_on_c, 1, 69, 125
2, 75008, Note_off_c, 1, 69, 0
2, 75008, Note_on_c, 1, 76, 115
2, 75392, Note_off_c, 1, 76, 0
2, 75392, Note_on_c, 1, 74, 92
2, 75456, Note_off_c, 1, 74, 0
2, 75456, Note_on_c, 1, 73, 95
2, 75520, Note_off_c, 1, 73, 0
2, 75520, Note_on_c, 1, 74, 104
2, 75648, Note_off_c, 1, 74, 0
2, 75648, Note_on_c, 1, 77, 104
2, 75904, Note_off_c, 1, 77, 0
2, 75904, Note_on_c, 1, 71, 85
2, 75968, Note_off_c, 1, 71, 0
2, 75968, Note_on_c, 1, 72, 101
2, 76032, Note_off_c, 1, 72, 0
2, 76032, Note_on_c, 1, 74, 105
2, 76096, Note_on_c, 1, 71, 99
2, 76097, Note_off_c, 1, 74, 0
2, 76156, Note_off_c, 1, 71, 0
2, 76160, Note_on_c, 1, 72, 104
2, 76224, Note_on_c, 1, 69, 93
2, 76225, Note_off_c, 1, 72, 0
2, 76284, Note_off_c, 1, 69, 0
2, 76288, Note_on_c, 1, 71, 105
2, 76352, Note_off_c, 1, 71, 0
2, 76352, Note_on_c, 1, 67, 87
2, 76416, Note_on_c, 1, 66, 81
2, 76417, Note_off_c, 1, 67, 0
2, 76480, Note_on_c, 1, 67, 103
2, 76481, Note_off_c, 1, 66, 0
2, 76540, Note_off_c, 1, 67, 0
2, 76544, Note_on_c, 1, 71, 109
2, 76608, Note_off_c, 1, 71, 0
2, 76608, Note_on_c, 1, 67, 89
2, 76672, Note_off_c, 1, 67, 0
2, 76672, Note_on_c, 1, 74, 115
2, 76736, Note_off_c, 1, 74, 0
2, 76736, Note_on_c, 1, 71, 92
2, 76800, Note_off_c, 1, 71, 0
2, 76800, Note_on_c, 1, 79, 121
2, 76928, Note_off_c, 1, 79, 0
2, 76928, Note_on_c, 1, 67, 76
2, 77056, Note_off_c, 1, 67, 0
2, 77056, Note_on_c, 1, 74, 113
2, 77440, Note_off_c, 1, 74, 0
2, 77440, Note_on_c, 1, 72, 89
2, 77504, Note_off_c, 1, 72, 0
2, 77504, Note_on_c, 1, 71, 93
2, 77568, Note_off_c, 1, 71, 0
2, 77568, Note_on_c, 1, 72, 107
2, 77696, Note_off_c, 1, 72, 0
2, 77696, Note_on_c, 1, 76, 107
2, 77952, Note_off_c, 1, 76, 0
2, 77952, Note_on_c, 1, 69, 77
2, 78016, Note_off_c, 1, 69, 0
2, 78016, Note_on_c, 1, 71, 102
2, 78080, Note_off_c, 1, 71, 0
2, 78080, Note_on_c, 1, 72, 100
2, 78144, Note_on_c, 1, 69, 89
2, 78145, Note_off_c, 1, 72, 0
2, 78204, Note_off_c, 1, 69, 0
2, 78208, Note_on_c, 1, 71, 104
2, 78272, Note_on_c, 1, 68, 93
2, 78273, Note_off_c, 1, 71, 0
2, 78332, Note_off_c, 1, 68, 0
2, 78336, Note_on_c, 1, 69, 96
2, 78400, Note_off_c, 1, 69, 0
2, 78400, Note_on_c, 1, 65, 87
2, 78464, Note_on_c, 1, 64, 85
2, 78465, Note_off_c, 1, 65, 0
2, 78528, Note_on_c, 1, 65, 100
2, 78529, Note_off_c, 1, 64, 0
2, 78588, Note_off_c, 1, 65, 0
2, 78592, Note_on_c, 1, 69, 105
2, 78656, Note_off_c, 1, 69, 0
2, 78656, Note_on_c, 1, 65, 92
2, 78720, Note_off_c, 1, 65, 0
2, 78720, Note_on_c, 1, 72, 115
2, 78784, Note_off_c, 1, 72, 0
2, 78784, Note_on_c, 1, 69, 93
2, 78848, Note_off_c, 1, 69, 0
2, 78848, Note_on_c, 1, 77, 111
2, 78912, Note_off_c, 1, 77, 0
2, 78976, Note_on_c, 1, 65, 73
2, 79040, Note_off_c, 1, 65, 0
2, 79104, Note_on_c, 1, 72, 113
2, 79488, Note_off_c, 1, 72, 0
2, 79488, Note_on_c, 1, 71, 95
2, 79552, Note_off_c, 1, 71, 0
2, 79552, Note_on_c, 1, 72, 108
2, 79616, Note_off_c, 1, 72, 0
2, 79616, Note_on_c, 1, 74, 103
2, 79744, Note_off_c, 1, 74, 0
2, 79744, Note_on_c, 1, 65, 72
2, 79872, Note_off_c, 1, 65, 0
2, 79872, Note_on_c, 1, 64, 87
2, 80000, Note_off_c, 1, 64, 0
2, 80000, Note_on_c, 1, 74, 118
2, 80128, Note_off_c, 1, 74, 0
2, 80128, Note_on_c, 1, 72, 96
2, 80256, Note_on_c, 1, 64, 79
2, 80258, Note_off_c, 1, 72, 0
2, 80377, Note_off_c, 1, 64, 0
2, 80384, Note_on_c, 1, 62, 88
2, 80448, Note_off_c, 1, 62, 0
2, 80448, Note_on_c, 1, 72, 118
2, 80512, Note_on_c, 1, 71, 118
2, 80513, Note_off_c, 1, 72, 0
2, 80576, Note_on_c, 1, 69, 89
2, 80577, Note_off_c, 1, 71, 0
2, 80636, Note_off_c, 1, 69, 0
2, 80640, Note_on_c, 1, 71, 99
2, 80704, Note_off_c, 1, 71, 0
2, 80704, Note_on_c, 1, 69, 95
2, 80768, Note_on_c, 1, 68, 92
2, 80769, Note_off_c, 1, 69, 0
2, 80832, Note_on_c, 1, 66, 95
2, 80833, Note_off_c, 1, 68, 0
2, 80892, Note_off_c, 1, 66, 0
2, 80896, Note_on_c, 1, 68, 101
2, 80961, Note_off_c, 1, 68, 0
2, 81024, Note_on_c, 1, 77, 119
2, 81084, Note_off_c, 1, 77, 0
2, 81152, Note_on_c, 1, 76, 97
2, 81216, Note_off_c, 1, 76, 0
2, 81280, Note_on_c, 1, 81, 113
2, 81344, Note_off_c, 1, 81, 0
2, 81362, Note_on_c, 1, 81, 111
2, 81382, Note_on_c, 1, 83, 111
2, 81408, Note_on_c, 1, 84, 111
2, 81408, Note_off_c, 1, 81, 0
2, 81408, Note_off_c, 1, 83, 0
2, 81651, Note_off_c, 1, 84, 0
2, 81664, Note_on_c, 1, 83, 94
2, 81984, Note_on_c, 1, 84, 101
2, 81990, Note_off_c, 1, 83, 0
2, 82048, Note_on_c, 1, 86, 104
2, 82049, Note_off_c, 1, 84, 0
2, 82108, Note_off_c, 1, 86, 0
2, 82112, Note_on_c, 1, 84, 96
2, 82176, Note_off_c, 1, 84, 0
2, 82176, Note_on_c, 1, 83, 95
2, 82240, Note_off_c, 1, 83, 0
2, 82240, Note_on_c, 1, 86, 107
2, 82304, Note_off_c, 1, 86, 0
2, 82304, Note_on_c, 1, 81, 90
2, 82368, Note_off_c, 1, 81, 0
2, 82368, Note_on_c, 1, 86, 107
2, 82432, Note_off_c, 1, 86, 0
2, 82432, Note_on_c, 1, 80, 84
2, 82496, Note_on_c, 1, 81, 90
2, 82497, Note_off_c, 1, 80, 0
2, 82560, Note_on_c, 1, 83, 103
2, 82561, Note_off_c, 1, 81, 0
2, 82620, Note_off_c, 1, 83, 0
2, 82624, Note_on_c, 1, 81, 92
2, 82688, Note_off_c, 1, 81, 0
2, 82688, Note_on_c, 1, 80, 95
2, 82752, Note_off_c, 1, 80, 0
2, 82752, Note_on_c, 1, 83, 103
2, 82816, Note_off_c, 1, 83, 0
2, 82816, Note_on_c, 1, 77, 91
2, 82880, Note_off_c, 1, 77, 0
2, 82880, Note_on_c, 1, 83, 112
2, 82944, Note_off_c, 1, 83, 0
2, 82944, Note_on_c, 1, 74, 78
2, 83008, Note_on_c, 1, 76, 83
2, 83009, Note_off_c, 1, 74, 0
2, 83072, Note_on_c, 1, 77, 100
2, 83073, Note_off_c, 1, 76, 0
2, 83132, Note_off_c, 1, 77, 0
2, 83136, Note_on_c, 1, 76, 93
2, 83200, Note_off_c, 1, 76, 0
2, 83200, Note_on_c, 1, 74, 90
2, 83264, Note_off_c, 1, 74, 0
2, 83264, Note_on_c, 1, 77, 105
2, 83328, Note_off_c, 1, 77, 0
2, 83328, Note_on_c, 1, 72, 83
2, 83392, Note_off_c, 1, 72, 0
2, 83392, Note_on_c, 1, 77, 105
2, 83456, Note_off_c, 1, 77, 0
2, 83456, Note_on_c, 1, 71, 84
2, 83520, Note_on_c, 1, 72, 85
2, 83521, Note_off_c, 1, 71, 0
2, 83584, Note_on_c, 1, 74, 103
2, 83585, Note_off_c, 1, 72, 0
2, 83644, Note_off_c, 1, 74, 0
2, 83648, Note_on_c, 1, 72, 97
2, 83712, Note_off_c, 1, 72, 0
2, 83712, Note_on_c, 1, 71, 95
2, 83776, Note_off_c, 1, 71, 0
2, 83776, Note_on_c, 1, 74, 105
2, 83840, Note_off_c, 1, 74, 0
2, 83840, Note_on_c, 1, 69, 87
2, 83904, Note_off_c, 1, 69, 0
2, 83904, Note_on_c, 1, 74, 110
2, 83968, Note_off_c, 1, 74, 0
2, 83968, Note_on_c, 1, 68, 87
2, 84032, Note_off_c, 1, 68, 0
2, 84032, Note_on_c, 1, 74, 110
2, 84096, Note_off_c, 1, 74, 0
2, 84096, Note_on_c, 1, 64, 79
2, 84160, Note_off_c, 1, 64, 0
2, 84160, Note_on_c, 1, 66, 103
2, 84224, Note_off_c, 1, 66, 0
2, 84224, Note_on_c, 1, 68, 106
2, 84288, Note_off_c, 1, 68, 0
2, 84288, Note_on_c, 1, 69, 105
2, 84352, Note_off_c, 1, 69, 0
2, 84352, Note_on_c, 1, 71, 105
2, 84416, Note_off_c, 1, 71, 0
2, 84416, Note_on_c, 1, 72, 99
2, 84480, Note_off_c, 1, 72, 0
2, 84480, Note_on_c, 1, 74, 105
2, 84544, Note_off_c, 1, 74, 0
2, 84544, Note_on_c, 1, 76, 104
2, 84608, Note_off_c, 1, 76, 0
2, 84608, Note_on_c, 1, 78, 105
2, 84672, Note_off_c, 1, 78, 0
2, 84672, Note_on_c, 1, 80, 107
2, 84736, Note_off_c, 1, 80, 0
2, 84736, Note_on_c, 1, 81, 101
2, 84800, Note_off_c, 1, 81, 0
2, 84800, Note_on_c, 1, 83, 103
2, 84864, Note_off_c, 1, 83, 0
2, 84864, Note_on_c, 1, 84, 107
2, 84928, Note_off_c, 1, 84, 0
2, 84928, Note_on_c, 1, 86, 106
2, 84992, Note_off_c, 1, 86, 0
2, 84992, Note_on_c, 1, 88, 107
2, 85120, Note_off_c, 1, 88, 0
2, 85120, Note_on_c, 1, 81, 81
2, 85248, Note_off_c, 1, 81, 0
2, 85248, Note_on_c, 1, 83, 97
2, 85376, Note_off_c, 1, 83, 0
2, 85376, Note_on_c, 1, 80, 87
2, 85504, Note_off_c, 1, 80, 0
2, 85504, Note_on_c, 1, 81, 100
2, 85568, Note_off_c, 1, 81, 0
2, 85568, Note_on_c, 1, 79, 90
2, 85632, Note_off_c, 1, 79, 0
2, 85632, Note_on_c, 1, 77, 89
2, 85696, Note_off_c, 1, 77, 0
2, 85696, Note_on_c, 1, 76, 85
2, 85760, Note_off_c, 1, 76, 0
2, 85760, Note_on_c, 1, 74, 87
2, 85888, Note_off_c, 1, 74, 0
2, 85888, Note_on_c, 1, 74, 95
2, 86016, Note_off_c, 1, 74, 0
2, 86016, Note_on_c, 1, 74, 101
2, 86080, Note_off_c, 1, 74, 0
2, 86080, Note_on_c, 1, 76, 102
2, 86144, Note_off_c, 1, 76, 0
2, 86144, Note_on_c, 1, 77, 103
2, 86336, Note_off_c, 1, 77, 0
2, 86336, Note_on_c, 1, 76, 98
2, 86400, Note_off_c, 1, 76, 0
2, 86400, Note_on_c, 1, 74, 91
2, 86464, Note_off_c, 1, 74, 0
2, 86464, Note_on_c, 1, 72, 90
2, 86528, Note_off_c, 1, 72, 0
2, 86528, Note_on_c, 1, 71, 94
2, 86592, Note_off_c, 1, 71, 0
2, 86592, Note_on_c, 1, 72, 98
2, 86656, Note_off_c, 1, 72, 0
2, 86656, Note_on_c, 1, 74, 106
2, 86848, Note_off_c, 1, 74, 0
2, 86848, Note_on_c, 1, 72, 97
2, 86912, Note_off_c, 1, 72, 0
2, 86912, Note_on_c, 1, 71, 97
2, 86976, Note_off_c, 1, 71, 0
2, 86976, Note_on_c, 1, 69, 94
2, 87040, Note_off_c, 1, 69, 0
2, 87040, Note_on_c, 1, 68, 92
2, 87168, Note_off_c, 1, 68, 0
2, 87168, Note_on_c, 1, 76, 115
2, 87296, Note_off_c, 1, 76, 0
2, 87296, Note_on_c, 1, 72, 93
2, 87424, Note_off_c, 1, 72, 0
2, 87424, Note_on_c, 1, 71, 91
2, 87488, Note_on_c, 1, 69, 85
2, 87489, Note_off_c, 1, 71, 0
2, 87548, Note_off_c, 1, 69, 0
2, 87552, Note_on_c, 1, 69, 95
2, 87936, Note_off_c, 1, 69, 0
2, 87937, End_track
3, 0, Start_track
3, 1, End_track
4, 0, Start_track
4, 1, End_track
5, 0, Start_track
5, 1, End_track
6, 0, Start_track
6, 1, End_track
7, 0, Start_track
7, 1, End_track
8, 0, Start_track
8, 1, End_track
0, 0, End_of_file
